<svg width="17" height="18" viewBox="0 0 17 18" fill="none" xmlns="http://www.w3.org/2000/svg">
<g clip-path="url(#clip0_1511_3667)">
<path d="M6.52612 9.23466L5.92623 8.19519L5.40582 7.29398L3.50084 3.99466L3.49978 3.99292L0.473437 9.23466C0.357965 9.43449 0.264847 9.63888 0.192725 9.84538C-0.533813 11.9233 0.871365 14.2122 3.10567 14.4554C3.23411 14.4694 3.36573 14.4767 3.49973 14.4767H3.5008C3.91725 14.4767 4.30995 14.4064 4.67078 14.2797C5.09357 14.131 5.47258 13.9041 5.79601 13.6203C5.87191 13.5535 5.9451 13.4838 6.01442 13.411C6.39832 13.0107 6.68464 12.5224 6.84669 11.9922C7.11376 11.1204 7.04551 10.1341 6.52612 9.23466Z" fill="white"/>
<path d="M15.8158 13.3073C15.0944 13.3073 14.4075 13.1778 13.8117 12.9278C13.1045 12.631 12.5353 12.1683 12.1657 11.5898C12.094 11.4776 12.1269 11.3287 12.239 11.257C12.3512 11.1853 12.5001 11.2182 12.5718 11.3303C13.2223 12.3486 14.5521 12.9043 16.1289 12.8166C16.1895 12.8133 16.2459 12.8328 16.2903 12.8674C16.6988 12.3034 16.9999 11.5215 16.9999 10.441C16.9999 8.24779 15.2498 6.46963 13.0911 6.46963C13.0758 6.46963 13.0607 6.47036 13.0454 6.47053C12.9562 6.47155 12.8676 6.47495 12.7801 6.48217C11.983 4.15819 9.86288 2.54956 7.3037 2.54956C7.20298 2.54956 7.09243 2.55173 6.97543 2.55645C6.0718 2.59308 4.76607 2.78943 4.33227 3.43365C4.30881 3.4685 4.30911 3.51503 4.32968 3.5518L5.17959 5.07185L6.52145 7.47501L6.99932 8.32863L7.55925 9.33073C7.87061 9.87856 8.01154 10.4828 8.01154 11.0258C8.01154 12.4577 7.01538 13.7524 6.60776 14.2223C6.54495 14.2947 6.59535 14.4094 6.68941 14.4094H10.7905H13.2409C13.5342 14.3982 13.8189 14.353 14.0922 14.2796C14.1237 14.2711 15.0987 14.0997 15.9111 13.3065C15.8793 13.307 15.8475 13.3073 15.8158 13.3073ZM14.1373 6.89072C15.268 7.30484 16.1897 8.26641 16.6039 9.41199C16.2909 9.77129 15.8442 9.97325 15.3395 9.97325C14.395 9.97325 13.6292 9.18211 13.6292 8.20622C13.6293 7.69929 13.8063 7.21292 14.1373 6.89072ZM9.72012 8.50479C9.39151 8.50479 9.12512 7.84604 9.12512 7.03348C9.12512 6.22088 9.39151 5.56213 9.72012 5.56213C10.0487 5.56213 10.3151 6.22088 10.3151 7.03348C10.3151 7.84608 10.0487 8.50479 9.72012 8.50479Z" fill="white"/>
</g>
<defs>
<clipPath id="clip0_1511_3667">
<rect width="17" height="17" fill="white" transform="translate(0 0.0131836)"/>
</clipPath>
</defs>
</svg>
