<svg width="17" height="17" viewBox="0 0 17 17" fill="none" xmlns="http://www.w3.org/2000/svg">
<g clip-path="url(#clip0_1511_1179)">
<path d="M16.4992 7.87287C16.2339 7.83687 15.9777 7.77265 15.7334 7.68327C15.5098 7.60163 15.2964 7.49882 15.0957 7.37753C14.4735 7.00204 13.971 6.44759 13.6598 5.78595C13.1305 4.66038 12.2126 3.75755 11.0533 3.30739C10.2616 2.99999 9.40041 2.83126 8.50013 2.83126C8.01333 2.83126 7.53801 2.88048 7.07897 2.97461V0.0593262C4.01056 0.575701 1.50046 2.73623 0.485308 5.60341C0.170935 6.49094 0 7.44595 0 8.44101C0 9.21196 0.10319 9.95868 0.295545 10.6687C1.26697 14.2544 4.52566 16.8995 8.40909 16.9404C8.43923 16.9406 8.46966 16.9409 8.50017 16.9409C8.5306 16.9409 8.56112 16.9406 8.59125 16.9404C10.8021 16.9171 12.8104 16.0495 14.3095 14.6452C14.2403 14.6478 14.1706 14.6493 14.1007 14.6493C13.4876 14.6493 12.8522 14.5469 12.2289 14.3428C11.1257 13.9817 10.2493 13.3612 9.82417 12.6406C9.68456 12.4039 9.76327 12.0988 9.99995 11.9592C10.2367 11.8196 10.5417 11.8983 10.6813 12.135C10.9762 12.635 11.6878 13.1186 12.5385 13.397C13.4792 13.705 14.4815 13.7351 15.2883 13.4796C15.3112 13.4723 15.3343 13.4674 15.3574 13.4635C16.1417 12.3946 16.6824 11.1357 16.8968 9.76849C16.9647 9.33593 16.9999 8.89248 16.9999 8.44092C16.9999 8.43914 16.9999 8.43739 16.9999 8.43552C16.9999 8.14903 16.7833 7.91137 16.4992 7.87287ZM6.10028 3.30773C6.10028 3.806 5.69636 4.20992 5.19809 4.20992H3.54212C3.17632 4.20992 2.94959 3.81331 3.13331 3.49702C3.75564 2.42573 4.83267 1.65121 6.10028 1.4379V3.30773ZM9.13742 9.71431C8.87141 9.71431 8.65581 8.80498 8.65581 7.68323C8.65581 6.56149 8.87145 5.65216 9.13742 5.65216C9.40342 5.65216 9.61903 6.56149 9.61903 7.68323C9.61903 8.80498 9.40338 9.71431 9.13742 9.71431ZM13.2615 11.7005C13.2014 11.7607 13.112 11.7977 13.027 11.7977C12.841 11.7977 12.7033 11.6457 12.6953 11.466C12.6916 11.3834 12.7349 11.289 12.7924 11.2315C12.8526 11.1713 12.9419 11.1343 13.027 11.1343C13.2129 11.1343 13.3506 11.2863 13.3586 11.466C13.3624 11.5486 13.3191 11.643 13.2615 11.7005ZM14.2555 10.1604C14.0696 10.1604 13.9319 10.0084 13.9238 9.82876C13.9201 9.74614 13.9634 9.65175 14.021 9.5942C14.0811 9.53406 14.1705 9.49705 14.2555 9.49705C14.4415 9.49705 14.5792 9.64903 14.5872 9.82876C14.5909 9.91138 14.5476 10.0058 14.49 10.0633C14.4299 10.1234 14.3406 10.1604 14.2555 10.1604ZM15.0637 12.083C15.0036 12.1431 14.9142 12.1801 14.8291 12.1801C14.6432 12.1801 14.5055 12.0281 14.4974 11.8484C14.4937 11.7658 14.537 11.6714 14.5946 11.6139C14.6547 11.5537 14.7441 11.5167 14.8291 11.5167C15.0151 11.5167 15.1528 11.6687 15.1609 11.8484C15.1646 11.9311 15.1212 12.0254 15.0637 12.083ZM16.7052 8.67233C16.7052 9.1239 16.6699 9.5673 16.602 9.99986C16.0541 9.42174 15.6481 8.70808 15.4386 7.91452C15.6828 8.00394 15.9391 8.06815 16.2044 8.10411C16.4885 8.1427 16.7051 8.38027 16.7053 8.66694C16.7052 8.66872 16.7052 8.67051 16.7052 8.67233Z" fill="white"/>
</g>
<defs>
<clipPath id="clip0_1511_1179">
<rect width="17" height="17" fill="white"/>
</clipPath>
</defs>
</svg>
