<svg width="609" height="360" viewBox="0 0 609 360" fill="none" xmlns="http://www.w3.org/2000/svg">
<g clip-path="url(#clip0_1520_2)">
<path d="M246.769 188.016C243.118 169.401 238.313 149.153 219.082 136.692C204.138 127.009 180.286 121.302 177.817 106.801C175.565 93.5661 195.312 83.0038 213.525 83C231.737 82.9962 248.344 89.9959 264.754 95.7817C312.901 112.759 367.028 120.54 420.365 118.153C426.193 125.729 421.385 135.592 413.326 141.978C405.267 148.364 394.474 152.494 385.345 158.055C366.017 169.83 354.754 188.378 355.761 206.775C356.313 216.875 360.319 226.71 361.625 236.773C362.931 246.836 361.037 257.86 351.647 265.27C332.781 280.156 287.623 274.349 269.898 260.264C248.682 243.408 250.897 209.071 246.769 188.016Z" fill="#E0EC89"/>
</g>
<g clip-path="url(#clip1_1520_2)">
<path d="M452.775 240.108C471.356 244.576 489.121 253.958 508.49 251.566C527.423 249.228 540.18 235.761 542.48 222.454C544.78 209.148 539.016 195.893 533.587 183.045C528.158 170.196 522.952 156.745 526.361 143.553C529.166 132.705 537.553 123.027 544.778 113.217C552.003 103.407 558.331 92.6243 556.493 81.6811C554.656 70.7385 541.945 60.0017 526.142 60.2919C512.309 60.5463 501.104 68.9937 496.842 78.1763C492.58 87.3595 493.618 97.2526 493.892 106.897C494.165 116.542 493.426 126.694 486.222 134.939C473.862 149.085 447.478 152.904 427.082 161.401C399.728 172.796 383.217 194.873 382.7 216.843C382.51 224.927 382.694 239.001 397.558 240.186C405.623 240.829 415.609 237.373 423.993 237.165C433.74 236.924 443.555 237.892 452.775 240.108Z" fill="#E0EC89"/>
</g>
<g clip-path="url(#clip2_1520_2)">
<mask id="mask0_1520_2" style="mask-type:luminance" maskUnits="userSpaceOnUse" x="-166" y="263" width="360" height="253">
<path d="M-26.8761 515.719L193.956 407.711L54.8773 263.296L-165.955 371.304L-26.8761 515.719Z" fill="white"/>
</mask>
<g mask="url(#mask0_1520_2)">
<path d="M123.542 362.28L103.556 355.475C103.22 355.36 102.837 355.548 102.866 355.812L104.583 371.552C104.651 372.175 104.799 372.774 105.017 373.346C107.208 379.097 116.53 382.053 124.051 379.173C124.483 379.008 124.911 378.823 125.331 378.617L125.335 378.616C126.639 377.978 127.718 377.219 128.576 376.383C129.58 375.404 130.28 374.317 130.683 373.188C130.777 372.922 130.856 372.655 130.917 372.386C131.258 370.904 131.106 369.376 130.474 367.944C129.436 365.589 127.102 363.492 123.542 362.28ZM121.671 373.64C118.908 375.527 114.432 374.934 112.806 372.465C111.821 370.969 112.298 369.142 113.971 367.999C116.735 366.112 121.21 366.705 122.837 369.174C123.822 370.669 123.345 372.497 121.671 373.64Z" fill="#E0EC89"/>
<path d="M112.809 314.42L92.8236 307.614C92.4879 307.5 92.1048 307.688 92.1335 307.952L93.8507 323.692C93.9188 324.315 94.0668 324.914 94.2841 325.486C96.4753 331.237 105.797 334.193 113.318 331.313C113.751 331.148 114.179 330.963 114.599 330.757L114.602 330.756C115.907 330.118 116.986 329.359 117.843 328.523C118.848 327.544 119.547 326.457 119.95 325.328C120.045 325.062 120.124 324.795 120.184 324.526C120.526 323.044 120.374 321.516 119.741 320.084C118.704 317.729 116.37 315.632 112.809 314.42ZM110.939 325.779C108.175 327.667 103.699 327.073 102.073 324.604C101.088 323.109 101.565 321.281 103.239 320.138C106.002 318.251 110.478 318.845 112.104 321.314C113.089 322.809 112.612 324.637 110.939 325.779Z" fill="#E0EC89"/>
<path d="M105.704 321.522C104.59 322.066 104.307 323.152 105.072 323.945C105.836 324.739 107.359 324.941 108.473 324.396C109.586 323.851 109.87 322.766 109.105 321.973C108.341 321.179 106.818 320.977 105.704 321.522Z" fill="#E0EC89"/>
<path d="M57.6007 341.422L37.6151 334.617C37.2794 334.502 36.8963 334.69 36.925 334.954L38.6423 350.694C38.7103 351.317 38.8583 351.916 39.0757 352.488C41.2668 358.239 50.5889 361.195 58.11 358.316C58.5424 358.15 58.9701 357.965 59.3903 357.759L59.3936 357.758C60.6981 357.12 61.777 356.361 62.6347 355.526C63.6393 354.546 64.3387 353.459 64.7417 352.33C64.8361 352.064 64.9155 351.797 64.976 351.528C65.3176 350.046 65.1651 348.518 64.5328 347.086C63.4952 344.731 61.1612 342.634 57.6007 341.422ZM55.7301 352.782C52.9663 354.669 48.4902 354.075 46.8644 351.606C45.8793 350.111 46.3564 348.283 48.0301 347.141C50.7939 345.253 55.2691 345.847 56.8958 348.316C57.881 349.811 57.4039 351.639 55.7301 352.782Z" fill="#E0EC89"/>
<path d="M50.4958 348.524C49.3819 349.069 49.0987 350.154 49.8631 350.948C50.6276 351.741 52.1502 351.943 53.264 351.398C54.3778 350.854 54.6611 349.769 53.8966 348.975C53.1322 348.181 51.6096 347.979 50.4958 348.524Z" fill="#E0EC89"/>
<path d="M54.0026 290.072L34.017 283.267C33.6813 283.153 33.2981 283.34 33.3269 283.605L35.0441 299.345C35.1121 299.968 35.2602 300.567 35.4775 301.138C37.6687 306.89 46.9908 309.846 54.5118 306.966C54.9442 306.8 55.372 306.615 55.7921 306.41L55.7954 306.408C57.1 305.77 58.1789 305.012 59.0365 304.176C60.0412 303.196 60.7405 302.109 61.1436 300.98C61.2379 300.715 61.3174 300.447 61.3778 300.179C61.7194 298.697 61.567 297.168 60.9346 295.737C59.897 293.382 57.563 291.284 54.0026 290.072ZM52.132 301.432C49.3682 303.319 44.892 302.726 43.2663 300.257C42.2811 298.762 42.7583 296.934 44.432 295.791C47.1958 293.904 51.671 294.497 53.2977 296.966C54.2828 298.462 53.8057 300.289 52.132 301.432Z" fill="#E0EC89"/>
<path d="M46.8976 297.174C45.7838 297.719 45.5006 298.804 46.265 299.598C47.0295 300.392 48.5521 300.594 49.6659 300.049C50.7797 299.504 51.0629 298.419 50.2985 297.625C49.5341 296.832 48.0115 296.63 46.8976 297.174Z" fill="#E0EC89"/>
</g>
<mask id="mask1_1520_2" style="mask-type:luminance" maskUnits="userSpaceOnUse" x="-166" y="263" width="360" height="253">
<path d="M-26.8761 515.719L193.956 407.711L54.8773 263.296L-165.955 371.304L-26.8761 515.719Z" fill="white"/>
</mask>
<g mask="url(#mask1_1520_2)">
<path d="M77.842 329.566C76.3833 330.28 76.0123 331.701 77.0134 332.74C78.0145 333.78 80.0086 334.044 81.4673 333.331C82.9259 332.617 83.2968 331.196 82.2957 330.157C81.2946 329.117 79.3006 328.853 77.842 329.566Z" fill="#3C3C3B"/>
<path d="M79.9508 358.595C77.6103 359.74 77.0151 362.02 78.6214 363.688C80.2277 365.356 83.4272 365.78 85.7676 364.636C88.1081 363.491 88.7032 361.211 87.0969 359.543C85.4907 357.875 82.2912 357.451 79.9508 358.595Z" fill="#3C3C3B"/>
<path d="M136.153 347.692C134.694 348.405 134.323 349.826 135.324 350.866C136.326 351.905 138.32 352.169 139.778 351.456C141.237 350.743 141.608 349.321 140.607 348.282C139.606 347.242 137.612 346.978 136.153 347.692Z" fill="#3C3C3B"/>
<path d="M115.2 341.356C112.859 342.5 112.264 344.78 113.87 346.448C115.477 348.116 118.676 348.54 121.017 347.396C123.357 346.251 123.952 343.971 122.346 342.303C120.74 340.635 117.54 340.211 115.2 341.356Z" fill="#3C3C3B"/>
<path d="M146.506 358.443C145.048 359.156 144.677 360.577 145.678 361.617C146.679 362.656 148.673 362.92 150.132 362.207C151.59 361.494 151.961 360.073 150.96 359.033C149.959 357.994 147.965 357.729 146.506 358.443Z" fill="#3C3C3B"/>
<path d="M62.8312 271.555C61.3725 272.269 61.0016 273.69 62.0027 274.729C63.0038 275.769 64.9978 276.033 66.4565 275.32C67.9152 274.606 68.2861 273.185 67.285 272.146C66.2839 271.106 64.2899 270.842 62.8312 271.555Z" fill="#3C3C3B"/>
<path d="M72.3101 296.812C69.9697 297.957 69.3745 300.237 70.9808 301.904C72.5871 303.572 75.7865 303.997 78.127 302.852C80.4674 301.707 81.0626 299.427 79.4563 297.759C77.85 296.091 74.6506 295.667 72.3101 296.812Z" fill="#3C3C3B"/>
<path d="M41.878 265.219C39.5375 266.363 38.9424 268.643 40.5487 270.311C42.1549 271.979 45.3544 272.403 47.6948 271.259C50.0353 270.114 50.6305 267.834 49.0242 266.166C47.4179 264.498 44.2184 264.074 41.878 265.219Z" fill="#3C3C3B"/>
<path d="M73.1852 282.306C71.7265 283.02 71.3556 284.441 72.3567 285.48C73.3578 286.52 75.3518 286.784 76.8105 286.071C78.2692 285.357 78.6401 283.936 77.639 282.897C76.6379 281.857 74.6439 281.593 73.1852 282.306Z" fill="#3C3C3B"/>
<path d="M87.587 338.285C83.961 340.059 83.039 343.591 85.5275 346.175C88.016 348.759 92.9728 349.416 96.5987 347.643C100.225 345.869 101.147 342.337 98.6582 339.753C96.1697 337.169 91.2129 336.512 87.587 338.285Z" fill="#3C3C3B"/>
<path d="M62.6876 315.265C59.0617 317.039 58.1396 320.571 60.6281 323.155C63.1166 325.739 68.0734 326.396 71.6993 324.623C75.3252 322.849 76.2473 319.317 73.7588 316.733C71.2703 314.149 66.3135 313.492 62.6876 315.265Z" fill="#3C3C3B"/>
</g>
<path d="M378.276 303.321C383.353 311.593 379.316 321.457 371.478 328.327C363.639 335.197 352.587 339.699 341.789 344.051C333.128 347.542 324.348 351.067 314.693 352.848C305.039 354.628 294.25 354.497 285.45 350.927C267.703 343.729 264.521 326.294 251.102 315.247C237.755 304.259 216.103 300.984 196.044 299.806C175.985 298.627 155.035 298.741 136.917 292.228C113.404 283.776 99.5951 266.041 87.2476 249.36C84.9579 246.266 82.6667 242.452 85.1515 239.508C88.0057 236.127 95.0052 236.421 100.295 237.718C115.353 241.412 127.408 249.584 140.912 255.695C154.414 261.806 171.967 265.853 185.744 260.481C190.997 258.433 195.127 255.215 199.879 252.62C204.631 250.027 210.598 247.991 216.516 248.903C222.675 249.851 227.222 253.777 229.846 257.909C232.469 262.041 233.681 266.553 236.186 270.721C243.849 283.467 262.844 291.303 281.833 293.56C300.595 295.791 317.974 292.816 336.333 291.241C351.413 289.947 371.326 291.998 378.276 303.321Z" fill="#E0EC89"/>
</g>
<g clip-path="url(#clip3_1520_2)">
<path d="M1.86909 94.9876C-3.09189 83.3628 2.28318 70.3433 12.5609 60.7446C24.564 49.5343 43.1878 42.2229 62.6404 41.0835C78.0185 40.183 93.9896 42.9148 108.661 39.4395C124.747 35.6291 135.864 25.2162 149.332 17.761C174.964 3.57163 211.334 0.468353 240.773 9.95914C255.863 14.8239 270.439 25.2014 267.678 37.0534C265.797 45.1275 256.238 51.2027 245.98 54.5514C235.722 57.9001 224.442 59.1956 213.828 61.8901C177.827 71.0281 151.613 97.6616 151.283 125.434C151.156 136.2 154.268 147.865 146.614 157.075C140.482 164.455 128.284 168.439 116.443 168.49C104.602 168.541 93.152 165.118 83.2254 160.415C63.4699 151.055 51.2758 137.468 43.1201 121.687C38.3226 112.404 35.3188 115.276 23.5074 111.95C13.3717 109.096 5.08729 102.528 1.86909 94.9876Z" fill="#E0EC89"/>
</g>
<g clip-path="url(#clip4_1520_2)">
<path d="M91.6526 142.078C90.2197 121.824 94.0851 93.9241 97.4423 93.4985C100.616 93.1062 113.187 112.318 118.61 120.872C112.312 122.283 106.889 126.489 102.082 130.603C98.142 134.058 94.6016 137.872 91.6526 142.07V142.078Z" fill="#320D3D"/>
<path d="M102.082 130.612C106.889 126.497 112.312 122.283 118.61 120.88C120.159 123.326 121.134 124.903 121.134 124.903L93.3684 153.754C92.5104 150.457 91.9606 146.443 91.6523 142.087C94.6097 137.889 98.1418 134.075 102.082 130.62V130.612Z" fill="#6C6C6C"/>
<path d="M165.053 142.078C164.745 146.435 164.195 150.449 163.337 153.746L135.571 124.895C135.571 124.895 136.546 123.317 138.095 120.872C144.393 122.283 149.808 126.489 154.623 130.603C158.564 134.058 162.104 137.872 165.053 142.07V142.078Z" fill="#6C6C6C"/>
<path d="M159.263 93.4984C162.62 93.924 166.486 121.815 165.053 142.078C162.104 137.881 158.563 134.067 154.623 130.612C149.808 126.497 144.385 122.283 138.095 120.88C143.527 112.326 156.089 93.1062 159.263 93.5068V93.4984Z" fill="#320D3D"/>
<path d="M141.277 249.629C127.524 256.264 112.012 252.541 98.0254 247.292L100.5 205.564L154.831 201.733C157.647 206.966 160.388 212.34 163.045 217.807C160.071 230.976 153.773 243.486 141.269 249.629H141.277Z" fill="#D1D1D1"/>
<path d="M141.277 249.629C153.773 243.486 160.071 230.976 163.053 217.807C194.543 282.519 214.911 360 214.911 360H91.3442L98.0253 247.3C112.012 252.55 127.515 256.272 141.277 249.637V249.629Z" fill="#320D3D"/>
<path d="M96.6427 94.0994C104.015 101.285 104.732 113.862 103.299 124.135C101.949 132.982 97.6924 139.975 91.986 145.892C89.8784 127.04 93.2855 98.5643 96.6344 94.0994H96.6427Z" fill="#FEB8AC"/>
<path d="M160.063 94.0994C152.69 101.285 151.965 113.862 153.406 124.135C154.756 132.982 159.013 139.975 164.719 145.892C166.827 127.04 163.42 98.5643 160.071 94.0994H160.063Z" fill="#FEB8AC"/>
<path d="M128.357 248.961C159.113 248.961 164.869 195.357 167.169 169.577C169.459 143.798 150.857 121.84 128.357 121.84C105.856 121.84 87.2539 143.798 89.5448 169.577C91.8357 195.357 97.6004 248.961 128.357 248.961Z" fill="#FFF3DB"/>
<path d="M133.297 122.207C153.498 125.137 169.285 145.709 167.16 169.569C166.019 182.438 164.003 202.251 158.447 218.858C152.982 196.776 135.146 185.768 133.522 173.141C131.931 160.781 132.822 133.808 133.297 122.199V122.207Z" fill="#320D3D"/>
<path d="M123.408 122.207C123.875 133.816 124.775 160.789 123.184 173.149C121.559 185.776 103.723 196.784 98.2586 218.867C92.7022 202.259 90.6945 182.446 89.5449 169.577C87.4206 145.709 103.207 125.145 123.408 122.216V122.207Z" fill="#320D3D"/>
<path d="M111.179 181.445C107.039 181.445 103.807 176.913 103.807 171.121C103.807 170.379 104.406 169.778 105.148 169.778C105.889 169.778 106.489 170.379 106.489 171.121C106.489 175.261 108.638 178.758 111.187 178.758C113.737 178.758 115.878 175.261 115.878 171.121C115.878 170.379 116.477 169.778 117.219 169.778C117.96 169.778 118.56 170.379 118.56 171.121C118.56 176.913 115.319 181.445 111.187 181.445H111.179Z" fill="#57484C"/>
<path d="M148.8 181.445C144.668 181.445 141.427 176.913 141.427 171.121C141.427 170.379 142.027 169.778 142.768 169.778C143.51 169.778 144.11 170.379 144.11 171.121C144.11 175.261 146.259 178.758 148.808 178.758C151.357 178.758 153.498 175.261 153.498 171.121C153.498 170.379 154.098 169.778 154.839 169.778C155.581 169.778 156.181 170.379 156.181 171.121C156.181 176.913 152.94 181.445 148.808 181.445H148.8Z" fill="#57484C"/>
<path d="M142.76 230.342C142.76 236.685 136.304 241.826 128.357 241.826C120.409 241.826 113.945 236.685 113.945 230.342C113.945 223.999 120.393 218.858 128.357 218.858C136.321 218.858 142.76 223.999 142.76 230.342Z" fill="#57484C"/>
<path d="M123.408 220.845C120.359 221.629 117.969 223.891 116.869 226.82C116.094 228.873 119.376 229.758 120.143 227.721C120.818 225.91 122.475 224.6 124.316 224.124C126.432 223.574 125.533 220.302 123.417 220.845H123.408Z" fill="#F9F6F6"/>
<path d="M117.802 228.923C116.969 228.698 115.886 229.199 115.711 230.108C115.628 230.559 115.52 230.993 115.436 231.444C115.27 232.353 115.669 233.271 116.619 233.538C117.444 233.764 118.544 233.263 118.702 232.353C118.785 231.903 118.893 231.46 118.977 231.018C119.143 230.108 118.743 229.19 117.794 228.923H117.802Z" fill="#F9F6F6"/>
<path d="M109.655 310.978C112.654 295.305 127.624 231.627 151.591 264.968C162.237 279.64 167.235 298.643 171.226 315.643C174.716 330.173 177.115 345.128 179.14 360H103.632C104.99 343.567 106.672 327.177 109.655 310.978Z" fill="#FFF3DB"/>
<path d="M529.488 157.902C529.963 158.261 532.562 167.291 534.119 172.841L521.174 177.122V169.227C521.174 169.227 528.805 157.384 529.488 157.902Z" fill="#FEB8AC"/>
<path d="M504.138 165.421C505.513 162.333 524.523 147.094 530.696 148.121C536.869 149.147 540.376 170.779 540.376 170.779L534.128 172.849C532.57 167.291 529.971 158.269 529.496 157.91C528.813 157.393 521.182 169.235 521.182 169.235C521.182 169.235 510.311 182.28 508.77 182.797C507.229 183.314 502.772 168.518 504.146 165.43L504.138 165.421Z" fill="#352328"/>
<path d="M566.667 141.252C566.15 140.226 555.512 137.989 555.512 137.989C555.512 137.989 550.372 137.13 550.031 136.27C549.689 135.41 556.537 129.435 561.052 129.51C570.965 134.25 586.369 158.753 575.581 207.158L571.682 202.125C578.438 160.739 566.675 141.252 566.675 141.252H566.667Z" fill="#352328"/>
<path d="M555.521 137.989C555.521 137.989 566.159 140.217 566.675 141.252C566.675 141.252 578.438 160.739 571.682 202.125L548.34 171.973L555.521 137.989Z" fill="#FEB8AC"/>
<path d="M475.389 207.016C477.83 195.774 508.078 190.4 508.078 190.4C527.105 155.699 558.328 164.495 572.965 190.4C587.601 216.305 591.992 360 591.992 360H502.422L520.582 234.623C478.263 233.939 472.948 218.258 475.389 207.016Z" fill="#593A42"/>
<path d="M552.488 360H502.422L520.582 234.623C520.582 234.623 526.98 235.4 535.552 234.774C535.552 234.774 547.957 327.936 552.488 360Z" fill="#352328"/>
<path d="M530.696 191.326C530.696 199.171 535.761 205.531 542 205.531C548.24 205.531 553.305 199.171 553.305 191.326C553.305 183.481 548.24 177.122 542 177.122C535.761 177.122 530.696 183.481 530.696 191.326Z" fill="#352328"/>
<path d="M537.377 191.326C537.377 193.788 538.718 195.791 540.376 195.791C542.034 195.791 543.375 193.796 543.375 191.326C543.375 188.856 542.034 186.861 540.376 186.861C538.718 186.861 537.377 188.856 537.377 191.326Z" fill="#191113"/>
<path d="M518.175 190.517C518.175 192.979 519.516 194.973 521.174 194.973C522.832 194.973 524.173 192.979 524.173 190.517C524.173 188.055 522.832 186.052 521.174 186.052C519.516 186.052 518.175 188.046 518.175 190.517Z" fill="#191113"/>
<path d="M473.981 205.531C473.981 210.505 479.046 214.544 485.286 214.544C491.526 214.544 496.59 210.505 496.59 205.531C496.59 200.556 491.526 196.517 485.286 196.517C479.046 196.517 473.981 200.548 473.981 205.531Z" fill="#191113"/>
<path d="M488.643 198.078C491.034 198.695 492.917 200.465 493.783 202.768C494.391 204.379 491.817 205.071 491.217 203.477C490.684 202.059 489.385 201.024 487.943 200.657C486.286 200.231 486.985 197.652 488.651 198.086L488.643 198.078Z" fill="#593A42"/>
<path d="M493.042 204.42C493.691 204.245 494.549 204.637 494.674 205.355C494.741 205.706 494.824 206.056 494.891 206.407C495.016 207.124 494.708 207.842 493.958 208.042C493.308 208.218 492.45 207.825 492.325 207.108C492.267 206.757 492.175 206.407 492.109 206.056C491.984 205.338 492.292 204.621 493.042 204.412V204.42Z" fill="#593A42"/>
<path d="M523.815 219.1C523.815 219.1 538.568 226.211 534.969 234.966C531.37 243.72 512.96 225.827 512.96 225.827C512.96 225.827 518.133 224.742 523.815 219.109V219.1Z" fill="#FEB8AC"/>
<path d="M527.73 231.836C524.948 228.865 521.582 226.211 517.975 224.3C517.217 223.899 517.892 222.748 518.65 223.148C522.332 225.101 525.823 227.855 528.672 230.893C529.255 231.519 528.322 232.462 527.73 231.836Z" fill="#FC8686"/>
<path d="M528.08 212.482C526.272 218.233 522.415 222.289 517.067 224.926C509.778 228.523 502.73 227.63 495.224 225.31C494.408 225.059 494.758 223.766 495.574 224.024C502.255 226.094 508.237 226.979 514.926 224.417C520.616 222.238 524.956 217.974 526.789 212.132C527.047 211.314 528.33 211.665 528.072 212.482H528.08Z" fill="#352328"/>
<path d="M396.099 206.44C394.033 208.677 392.076 210.947 390.334 213.342C392.7 188.672 401.439 173.124 404.58 173.116C408.487 173.116 412.327 187.729 414.301 196.634C406.887 197.635 401.639 200.556 396.108 206.44H396.099Z" fill="#E0EC89"/>
<path d="M396.099 206.44C401.631 200.556 406.879 197.644 414.293 196.634C415.159 200.531 415.668 203.344 415.668 203.344L389.81 221.396C389.901 218.616 390.084 215.929 390.326 213.342C392.075 210.947 394.025 208.677 396.091 206.44H396.099Z" fill="#83DD59"/>
<path d="M468.275 215.487C468.425 217.406 468.541 219.376 468.608 221.396L442.75 203.344C442.75 203.344 443.208 200.799 444 197.202C448.915 198.729 453.746 201.95 457.612 204.537C461.744 207.475 465.392 211.264 468.266 215.495L468.275 215.487Z" fill="#83DD59"/>
<path d="M453.846 173.116C457.07 173.116 466.225 189.59 468.275 215.495C465.401 211.264 461.752 207.475 457.62 204.537C453.755 201.959 448.923 198.729 444.008 197.202C445.94 188.363 449.856 173.116 453.854 173.116H453.846Z" fill="#E0EC89"/>
<path d="M404.571 179.784C405.804 179.559 411.602 202.009 410.194 203.786C408.787 205.564 395.924 215.771 395.258 214.227C394.591 212.674 402.139 180.226 404.58 179.784H404.571Z" fill="#FEB8AC"/>
<path d="M453.846 179.784C452.613 179.559 446.815 202.009 448.223 203.786C449.631 205.564 462.493 215.771 463.16 214.227C463.826 212.674 456.279 180.226 453.838 179.784H453.846Z" fill="#FEB8AC"/>
<path d="M394.392 360C394.392 360 377.414 274.541 384.378 237.912C391.343 201.283 418.767 197.36 429.213 197.36C439.66 197.36 467.084 201.283 474.04 237.912C481.004 274.541 464.026 360 464.026 360H394.383H394.392Z" fill="#FFF3DB"/>
<path d="M430.796 197.393C442.192 197.802 467.4 203.002 474.04 237.912C481.004 274.541 464.026 360 464.026 360H461.96C478.396 303.6 475.597 232.746 430.796 197.393Z" fill="#FFF9EE"/>
<path d="M432.887 232.671C428.313 221.796 431.404 202.676 428.305 202.676C425.206 202.676 428.305 221.796 423.723 232.671C420.191 241.083 397.532 231.577 387.436 226.837C397.266 200.481 419.925 197.36 429.205 197.36C438.485 197.36 460.727 200.406 470.707 226.103C461.61 230.484 436.611 241.534 432.887 232.671Z" fill="#E0EC89"/>
<path d="M382.804 266.921C385.569 276.836 389.935 286.383 395.258 295.58C405.904 314.032 418.55 331.141 423.881 352.038C424.456 354.2 425.239 356.987 425.889 360H394.391C394.391 360 383.928 307.297 382.804 266.921Z" fill="#E0EC89"/>
<path d="M463.16 295.58C468.483 286.383 472.848 276.827 475.614 266.921C474.49 307.289 464.026 360 464.026 360H432.529C433.187 356.987 433.962 354.2 434.536 352.038C439.86 331.149 452.505 314.032 463.16 295.58Z" fill="#E0EC89"/>
<path d="M430.796 197.385C440.759 197.744 461.269 201.775 470.707 226.103C467.7 227.555 462.952 229.725 457.812 231.669C451.431 218.391 442.559 206.665 430.788 197.385H430.796Z" fill="#E0EC89"/>
<path d="M464.026 360H461.96C469.216 335.088 472.723 307.364 470.516 281.125C472.54 276.477 474.273 271.745 475.614 266.929C474.49 307.297 464.026 360.008 464.026 360.008V360Z" fill="#FF9E10"/>
<path d="M437.493 225.393C438.002 225.393 438.41 224.984 438.41 224.475C438.41 221.638 439.884 219.242 441.625 219.242C443.367 219.242 444.841 221.638 444.841 224.475C444.841 224.984 445.249 225.393 445.757 225.393C446.266 225.393 446.674 224.984 446.674 224.475C446.674 220.511 444.458 217.406 441.625 217.406C438.793 217.406 436.577 220.511 436.577 224.475C436.577 224.984 436.985 225.393 437.493 225.393Z" fill="#593A42"/>
<path d="M412.827 225.393C413.335 225.393 413.743 224.984 413.743 224.475C413.743 221.638 415.218 219.242 416.959 219.242C418.7 219.242 420.175 221.638 420.175 224.475C420.175 224.984 420.583 225.393 421.091 225.393C421.599 225.393 422.007 224.984 422.007 224.475C422.007 220.511 419.791 217.406 416.959 217.406C414.127 217.406 411.911 220.511 411.911 224.475C411.911 224.984 412.319 225.393 412.827 225.393Z" fill="#593A42"/>
<path d="M445.749 243.837C441.692 251.023 434.961 254.494 426.78 254.094C418.8 253.71 410.669 248.252 409.553 239.906C409.445 239.063 410.719 238.704 410.836 239.556C411.96 247.951 419.958 252.433 427.747 252.809C435.053 253.159 441.067 249.437 444.608 243.161C445.033 242.41 446.182 243.086 445.757 243.837H445.749Z" fill="#593A42"/>
<path d="M427.864 253.326C427.847 249.838 428.247 246.332 427.664 242.861C427.522 242.018 428.805 241.659 428.947 242.51C429.555 246.107 429.172 249.704 429.197 253.326C429.197 254.186 427.872 254.186 427.864 253.326Z" fill="#593A42"/>
<path d="M417.092 237.002C417.092 241.976 422.157 246.015 428.397 246.015C434.636 246.015 439.701 241.984 439.701 237.002C439.701 232.02 434.636 227.989 428.397 227.989C422.157 227.989 417.092 232.02 417.092 237.002Z" fill="#593A42"/>
<path d="M432.279 229.541C434.67 230.158 436.553 231.928 437.419 234.231C438.027 235.842 435.453 236.535 434.853 234.941C434.32 233.522 433.02 232.487 431.579 232.12C429.913 231.694 430.621 229.115 432.287 229.549L432.279 229.541Z" fill="#936170"/>
<path d="M436.686 235.884C437.336 235.708 438.194 236.101 438.319 236.818C438.385 237.169 438.477 237.519 438.535 237.87C438.66 238.588 438.352 239.305 437.602 239.514C436.952 239.698 436.094 239.297 435.969 238.579C435.911 238.229 435.819 237.887 435.753 237.528C435.62 236.818 435.936 236.092 436.686 235.892V235.884Z" fill="#936170"/>
<path d="M350.19 117.35C355.188 118.293 359.703 89.2839 371.741 85.9373C383.779 82.5907 404.255 78.2175 396.591 71.2072C388.935 64.1968 358.537 61.1006 350.923 72.2504C343.317 83.4085 338.461 115.147 350.19 117.359V117.35Z" fill="#352328"/>
<path d="M350.923 72.2338C358.529 61.084 388.935 64.1886 396.591 71.1906C398.465 72.9014 398.64 74.4621 397.691 75.8808C395.483 75.7974 393.259 75.8725 390.976 76.1562C375.532 77.5583 353.172 88.3492 343.167 102.328C343.101 91.8377 346.55 78.6432 350.923 72.2338Z" fill="#593A42"/>
<path d="M324.399 170.595C330.788 176.037 340.918 179.751 340.918 179.751C339.852 210.855 347.749 248.485 357.104 281.3C313.019 224.533 324.399 170.604 324.399 170.604V170.595Z" fill="#EFDCBD"/>
<path d="M294.375 144.999C299.482 119.086 308.429 93.4901 340.818 99.5657C373.207 105.641 370.383 138.281 369.425 138.281C368.467 138.281 402.639 175.394 384.545 186.269C366.451 197.143 340.918 179.742 340.918 179.742C340.918 179.742 330.788 176.029 324.399 170.587C324.399 170.587 313.019 224.517 357.104 281.284C369.542 324.882 384.553 359.983 384.553 359.983H272.025C269.151 284.48 289.111 171.714 294.384 144.991L294.375 144.999Z" fill="#FFF3DB"/>
<path d="M325.898 156.817C325.898 156.817 311.203 152.561 308.262 160.898C305.322 169.244 329.272 168.275 329.272 168.275C329.272 168.275 326.34 164.286 325.898 156.817Z" fill="#FEB8AC"/>
<path d="M394.7 170.187C394.7 175.578 389.218 179.943 382.454 179.943C375.689 179.943 370.208 175.578 370.208 170.187C370.208 164.795 375.689 160.431 382.454 160.431C389.218 160.431 394.7 164.804 394.7 170.187Z" fill="#593A42"/>
<path d="M344.4 143.873C347.916 143.873 350.665 140.017 350.665 135.101C350.665 134.476 350.157 133.958 349.524 133.958C348.891 133.958 348.382 134.467 348.382 135.101C348.382 138.623 346.558 141.594 344.392 141.594C342.226 141.594 340.402 138.623 340.402 135.101C340.402 134.476 339.894 133.958 339.26 133.958C338.627 133.958 338.119 134.467 338.119 135.101C338.119 140.017 340.868 143.873 344.384 143.873H344.4Z" fill="#593A42"/>
<path d="M365.093 143.873C368.609 143.873 371.358 140.017 371.358 135.101C371.358 134.476 370.85 133.958 370.216 133.958C369.583 133.958 369.075 134.467 369.075 135.101C369.075 138.623 367.251 141.594 365.085 141.594C362.919 141.594 361.095 138.623 361.095 135.101C361.095 134.476 360.586 133.958 359.953 133.958C359.32 133.958 358.812 134.467 358.812 135.101C358.812 140.017 361.561 143.873 365.077 143.873H365.093Z" fill="#593A42"/>
<path d="M315.218 161.991C319.125 161.666 323.191 161.966 327.023 162.859C327.806 163.043 327.472 164.244 326.689 164.061C322.966 163.185 319.034 162.918 315.218 163.235C314.419 163.301 314.427 162.058 315.218 161.991Z" fill="#FC8686"/>
<path d="M378.256 162.116C375.665 162.784 373.632 164.704 372.691 167.191C372.041 168.935 374.823 169.686 375.473 167.958C376.048 166.414 377.456 165.304 379.022 164.904C380.821 164.437 380.055 161.649 378.256 162.116Z" fill="#936170"/>
<path d="M373.491 168.985C372.782 168.793 371.858 169.219 371.716 169.995C371.649 170.379 371.549 170.754 371.483 171.13C371.341 171.898 371.683 172.682 372.491 172.907C373.191 173.099 374.124 172.674 374.265 171.898C374.332 171.514 374.432 171.138 374.498 170.763C374.64 169.995 374.299 169.21 373.499 168.985H373.491Z" fill="#936170"/>
<path d="M318.642 118.051C323.482 116.499 316.335 88.0071 325.34 79.3359C334.337 70.6565 347.616 57.8709 337.552 55.3505C327.489 52.8302 299.274 64.5892 297.874 78.0257C296.475 91.4622 307.279 121.698 318.642 118.06V118.051Z" fill="#352328"/>
<path d="M327.406 278.73C325.382 264.008 336.145 253.318 348.891 249.036C351.323 260.036 354.139 270.91 357.096 281.301C359.812 290.831 362.661 299.961 365.435 308.407C349.174 309.4 329.314 294.069 327.398 278.738L327.406 278.73Z" fill="#593A42"/>
<path d="M299.307 172.473C296.716 183.732 292.784 193.646 285.245 198.145C289.011 173.592 292.559 154.205 294.375 145.008C295.292 140.376 296.325 135.752 297.599 131.321C306.005 143.814 303.772 154.597 299.307 172.473Z" fill="#593A42"/>
<path d="M319.742 360H272.025C271.408 343.701 271.85 325.658 272.983 307.122C278.914 308.04 285.187 310.026 291.593 312.513C312.811 321.017 324.599 338.961 319.75 360.008L319.742 360Z" fill="#593A42"/>
<path d="M328.139 150.14C325.407 156.325 326.631 162.375 329.88 168.075C332.704 173.024 337.561 175.603 342.543 177.898C343.267 178.232 342.634 179.308 341.918 178.975C336.153 176.329 331.463 173.366 328.256 167.741C324.99 162.008 324.39 155.582 327.064 149.523C327.389 148.788 328.464 149.423 328.139 150.149V150.14Z" fill="#593A42"/>
<path d="M348.89 249.036V249.053C349.474 251.682 350.073 254.294 350.698 256.898C350.815 257.382 350.931 257.866 351.048 258.35C351.54 260.378 352.039 262.398 352.548 264.401C352.731 265.135 352.922 265.861 353.106 266.587C353.572 268.407 354.055 270.218 354.539 272.02C354.722 272.721 354.913 273.422 355.105 274.115C355.763 276.527 356.421 278.93 357.096 281.292C349.823 271.928 344.067 262.64 339.51 253.651C342.376 251.707 345.558 250.146 348.882 249.028L348.89 249.036Z" fill="#352328"/>
<path d="M297.874 78.0173C299.274 64.5808 327.489 52.8301 337.552 55.3422C340.443 56.0683 341.401 57.6372 341.093 59.7153C332.337 64.7895 324.124 70.9068 317.867 78.8018C307.613 91.9629 310.17 105.124 316.026 118.285C305.68 117.092 296.583 90.4106 297.874 78.0173Z" fill="#593A42"/>
<path d="M295.716 360C295.716 360 301.29 268.907 275.132 225.502C248.966 182.104 218.084 198.003 206.072 216.046C206.072 216.046 188.486 227.646 171.758 227.221C171.758 227.221 179.481 258.158 212.936 244.413C212.936 244.413 241.668 246.558 247.249 280.933C252.823 315.309 211.653 360 211.653 360H295.716Z" fill="#8F7E70"/>
<path d="M205.205 216.597C221.233 227.363 212.936 244.413 212.936 244.413C179.481 258.166 171.758 227.221 171.758 227.221C186.303 227.596 201.49 218.875 205.205 216.588V216.597Z" fill="#FFF3DB"/>
<path d="M265.593 291.382C280.155 321.118 281.938 345.262 280.98 360H211.645C211.645 360 252.823 315.309 247.241 280.933C241.668 246.558 212.928 244.413 212.928 244.413C212.928 244.413 241.01 241.191 265.585 291.382H265.593Z" fill="#5A4B46"/>
<path d="M166.36 228.815C169.768 232.495 174.599 233.555 177.157 231.177C179.706 228.806 179.006 223.899 175.599 220.219C172.192 216.538 167.36 215.487 164.811 217.857C162.262 220.227 162.961 225.134 166.369 228.815H166.36Z" fill="#593A42"/>
<path d="M236.062 203.97C236.778 201.825 247.95 195.616 251.19 197.435C254.431 199.254 259.92 230.701 255.68 236.985C251.432 243.261 240.51 214.093 238.894 212.073C237.278 210.045 237.886 218.758 236.062 217.74C234.237 216.73 234.446 208.827 236.062 203.97Z" fill="#593A42"/>
<path d="M215.085 218.366C215.085 220.728 216.285 222.647 217.768 222.647C219.251 222.647 220.45 220.728 220.45 218.366C220.45 216.004 219.251 214.085 217.768 214.085C216.285 214.085 215.085 215.996 215.085 218.366Z" fill="#593A42"/>
<path d="M208.138 229.432C210.37 234.498 210.079 241.742 203.448 242.81C202.348 242.986 201.873 241.3 202.981 241.125C208.396 240.248 208.438 234.431 206.63 230.317C206.18 229.299 207.688 228.406 208.138 229.432Z" fill="#593A42"/>
<path d="M170.775 217.807C171.55 218.241 172.25 218.717 172.875 219.359C174.458 220.978 171.867 223.332 170.292 221.721C169.884 221.304 169.376 221.037 168.876 220.753C166.91 219.651 168.818 216.714 170.775 217.815V217.807Z" fill="#936170"/>
<path d="M175.441 221.512C175.982 221.946 176.365 222.372 176.749 222.948C177.273 223.749 176.79 224.901 176.015 225.31C175.107 225.785 174.183 225.368 173.658 224.575C173.616 224.533 173.583 224.492 173.541 224.45C172.8 223.857 172.467 222.889 173.025 222.03C173.508 221.295 174.699 220.92 175.441 221.512Z" fill="#936170"/>
<path d="M70.7178 254.962C70.7178 254.962 71.4509 246.808 74.0167 239.514C76.041 241.751 78.2653 243.812 80.6978 245.59L75.4662 253.635L70.7095 254.962H70.7178Z" fill="#EFDCBD"/>
<path d="M74.0249 239.514C74.7913 237.327 75.7244 235.224 76.8573 233.438C77.2655 232.796 77.7403 232.195 78.2652 231.619C78.1069 230.3 78.2069 228.831 78.8983 227.83C79.2982 227.171 80.0312 226.72 80.656 227.354C81.1392 227.847 81.0726 228.623 80.9892 229.265C81.0142 229.249 81.0392 229.24 81.0559 229.215C81.6224 227.262 81.8056 224.892 83.2052 223.373C83.8383 222.747 84.588 222.656 85.0046 223.524C85.521 224.567 85.0379 226.077 84.7963 227.121C85.4627 226.361 88.8116 222.322 90.0945 222.013C91.2441 221.754 91.1275 222.747 90.7776 223.532C90.4194 224.358 89.8113 225.068 89.1532 225.719C94.7846 224.425 100.274 225.201 101.566 228.564C104.231 235.475 84.9546 239.022 84.9546 239.022L80.6977 245.573C78.2652 243.795 76.0409 241.725 74.0166 239.497L74.0249 239.514Z" fill="#FFF3DB"/>
<path d="M51.1327 243.937C51.1327 243.937 56.0727 233.789 58.5469 235.274C61.0127 236.76 56.5726 243.937 56.5726 243.937C56.5726 243.937 67.194 236.368 68.6768 239.531C70.1596 242.702 62.254 246.908 62.254 246.908C62.254 246.908 79.2982 250.372 83.4968 251.857C87.6954 253.343 93.8683 258.292 86.2125 261.755L83.9883 273.381C83.9883 273.381 103.998 270.41 106.222 280.808C108.447 291.199 104.248 297.633 102.274 297.633C100.299 297.633 98.8166 294.662 98.8166 294.662C98.8166 294.662 99.8663 303.625 96.0925 304.627C93.585 305.294 92.1439 299.853 92.1439 299.853C92.1439 299.853 90.636 310.16 86.4625 310.001C84.2382 309.918 83.4468 303.583 83.4468 303.583C83.4468 303.583 77.3239 311.737 73.8667 310.001C70.4095 308.274 64.9697 299.853 64.9697 299.853C64.9697 299.853 72.8754 318.906 71.8924 327.319C70.901 335.731 67.4439 335.981 64.4782 333.01C64.4782 333.01 65.961 347.857 60.5296 359.983H0C0 359.983 38.5286 262.982 42.4856 252.091C42.4856 252.091 39.9532 237.411 44.2184 236.251C48.417 235.107 51.1327 243.92 51.1327 243.92V243.937Z" fill="#FFF3DB"/>
<path d="M50.6164 351.012C51.3161 344.235 49.4501 326.467 60.6463 330.907C59.2468 326 55.5147 314.775 64.6116 317.813C62.5123 314.074 54.3484 300.279 58.547 296.54C61.521 293.861 65.628 299.611 68.577 304.877C66.561 302.34 64.9615 299.861 64.9615 299.861C64.9615 299.861 72.8672 318.914 71.8842 327.327C70.8929 335.739 67.4357 335.99 64.47 333.019C64.47 333.019 65.9529 347.866 60.5214 359.992H30.4648C30.9813 357.146 32.0226 354.459 33.822 352.172C37.7874 347.031 46.1929 345.863 50.6247 351.003L50.6164 351.012Z" fill="#EFDCBD"/>
<path d="M98.8501 229.683C97.7089 233.589 84.48 237.185 84.48 237.185L72.9839 252.617C72.9839 252.617 79.0985 235.082 80.1898 233.346C81.2811 231.611 100.266 224.784 98.8418 229.674L98.8501 229.683Z" fill="#FEB8AC"/>
<path d="M29.8482 232.378C30.5397 232.428 30.9978 233.063 31.356 233.597C31.356 233.572 31.3727 233.547 31.381 233.513C30.523 231.669 29.0985 229.766 29.1568 227.697C29.2234 226.812 29.7233 226.244 30.6063 226.62C31.6809 227.062 32.314 228.523 32.8139 229.466C32.8139 228.456 32.6889 223.207 33.447 222.13C34.1384 221.179 34.7132 222.005 34.9632 222.823C35.2381 223.682 35.2464 224.617 35.1797 225.543C38.5619 220.853 43.2104 217.815 46.3926 219.493C52.9404 222.94 40.7695 238.321 40.7695 238.321L43.227 255.563L40.5196 259.702C40.5196 259.702 32.3974 248.519 30.9812 239.456C30.8645 238.704 30.8312 237.937 30.8479 237.16C29.8649 236.267 28.9735 235.099 28.8319 233.889C28.7069 233.13 28.9569 232.312 29.8399 232.37L29.8482 232.378Z" fill="#FFF3DB"/>
<path d="M45.068 222.122C46.7758 225.81 39.1867 237.244 39.1867 237.244L41.6525 255.588C41.6525 255.588 33.7635 239.205 33.447 237.177C33.1304 235.149 42.9271 217.481 45.0764 222.113L45.068 222.122Z" fill="#FEB8AC"/>
<path d="M66.7442 265.569C66.2944 266.312 65.6529 266.754 64.8532 266.888C62.5789 267.272 60.1714 264.985 57.7139 260.053C57.5973 259.81 57.6889 259.527 57.9305 259.41C58.1638 259.285 58.4553 259.385 58.572 259.627C61.3793 265.244 63.462 266.153 64.6949 265.945C65.2197 265.861 65.6196 265.577 65.9195 265.077C66.7859 263.641 66.5693 260.837 66.0778 259.36C66.0111 259.151 66.0861 258.918 66.2777 258.801C66.461 258.684 66.7025 258.709 66.8692 258.859C67.9771 259.902 68.9518 261.154 69.8598 262.69C70.0098 262.948 70.168 263.216 70.3263 263.491C71.1261 264.885 72.0258 266.47 73.342 267.196C73.8002 267.447 74.2333 267.497 74.6249 267.338C75.0914 267.146 75.4829 266.671 75.6912 266.011C76.1744 264.626 75.6912 263.14 75.2247 261.697L75.1247 261.379C75.0581 261.179 75.133 260.954 75.3163 260.829C75.4913 260.712 75.7245 260.72 75.8911 260.862C76.166 261.096 76.4409 261.329 76.7158 261.571C77.9987 262.681 79.3233 263.833 80.8478 264.376C81.5892 264.618 82.139 264.601 82.4639 264.325C82.9471 263.917 83.097 262.832 82.8804 261.371C82.8388 261.112 83.022 260.862 83.2886 260.82C83.5469 260.77 83.7968 260.962 83.8384 261.229C84.0384 262.523 84.0634 264.242 83.097 265.068C82.4972 265.577 81.6475 265.652 80.5479 265.302C79.0317 264.759 77.7571 263.741 76.5492 262.698C76.8658 263.866 77.0407 265.102 76.6242 266.32C76.3326 267.246 75.7412 267.947 74.9997 268.24C74.7332 268.348 74.4583 268.398 74.175 268.398C73.7585 268.398 73.3253 268.281 72.9005 268.048C71.351 267.18 70.3763 265.477 69.5099 263.975C69.36 263.7 69.2017 263.441 69.0601 263.19C68.5353 262.298 67.9855 261.513 67.4023 260.812C67.6022 262.406 67.5273 264.351 66.7775 265.586L66.7442 265.569Z" fill="#EFDCBD"/>
<path d="M57.3474 277.57C57.4057 277.311 57.6556 277.153 57.9222 277.203C58.1804 277.261 58.3471 277.52 58.2887 277.779C58.0138 279.039 58.0722 280.391 58.472 281.91C59.2801 284.814 60.1465 285.457 60.7213 285.482C61.8792 285.482 62.2457 283.095 62.329 282.352C62.4873 281.259 62.3624 280.241 61.9542 279.331C61.8542 279.139 61.7792 278.989 61.7292 278.88C61.6293 278.647 61.7293 278.371 61.9542 278.254C62.1874 278.138 62.4623 278.229 62.5873 278.455C62.6789 278.622 62.7622 278.78 62.8372 278.955C63.3537 279.907 64.3367 281.234 65.1531 281.492C65.3697 281.559 65.5446 281.543 65.7112 281.442C65.9112 281.326 66.0111 281.167 66.0445 280.942C66.1944 279.79 64.495 277.537 63.5953 276.635C63.4037 276.443 63.4037 276.143 63.5953 275.951C63.7869 275.759 64.0868 275.759 64.2784 275.951C64.3117 275.984 67.2607 279.039 67.0025 281.059C66.9358 281.584 66.6609 282.002 66.2111 282.269C65.8112 282.511 65.3447 282.561 64.8699 282.41C64.3284 282.235 63.8119 281.826 63.3537 281.334C63.3537 281.709 63.337 282.085 63.2787 282.477C62.9788 285.039 62.0708 286.45 60.6963 286.45C58.6969 286.366 57.8222 283.212 57.539 282.168C57.1058 280.491 57.0392 278.989 57.3474 277.578V277.57Z" fill="#EFDCBD"/>
<path d="M38.6953 320.016C38.9368 320.116 39.0535 320.4 38.9535 320.65C38.5036 321.727 38.7536 323.913 39.495 325.507C39.9365 326.442 40.4863 327.06 41.0361 327.227C41.7192 327.41 42.3107 327.243 42.8522 326.734C44.0601 325.574 44.6182 322.895 44.2934 321.368C44.235 321.109 44.4017 320.859 44.6516 320.801C44.9098 320.734 45.1681 320.901 45.2264 321.151C45.8845 323.805 47.0424 326.25 47.6506 326.275C47.7838 326.275 48.1087 326 48.4669 324.973C49.5499 321.71 49.5499 316.978 48.4669 313.707C48.392 313.49 48.4836 313.248 48.6835 313.139C48.8835 313.022 49.1334 313.064 49.2833 313.239C50.5496 314.692 53.0487 316.845 54.3899 315.751C54.8065 315.418 55.0147 314.984 55.0231 314.416C55.0731 312.522 52.9154 309.768 51.7992 308.774C51.5992 308.599 51.5826 308.29 51.7575 308.098C51.9324 307.898 52.2407 307.881 52.4406 308.057C53.5736 309.067 56.0477 312.079 55.9811 314.441C55.9561 315.292 55.6229 315.993 54.9897 316.494C53.3903 317.804 51.2327 316.402 49.8332 315.159C50.4996 318.414 50.3413 322.328 49.3666 325.274C49.2 325.758 48.6919 327.235 47.6422 327.235C47.6256 327.235 47.6089 327.235 47.5922 327.235C46.5759 327.193 45.7179 325.616 45.1264 324.08C44.8682 325.341 44.335 326.617 43.4936 327.427C42.9188 327.978 42.2607 328.253 41.536 328.253C41.2777 328.253 41.0195 328.22 40.7529 328.153C39.9115 327.894 39.1701 327.118 38.6036 325.916C37.7289 324.047 37.4873 321.618 38.0371 320.283C38.1371 320.033 38.4287 319.924 38.6703 320.024L38.6953 320.016Z" fill="#EFDCBD"/>
<path d="M31.2977 292.951C31.4977 292.776 31.7976 292.784 31.9808 292.985C32.1558 293.176 32.1474 293.485 31.9475 293.66C30.2897 295.171 29.3234 297.808 30.5563 299.594C31.0395 300.195 31.6476 300.496 32.2557 300.446C32.9138 300.387 33.522 299.928 33.9302 299.177C34.0385 298.985 34.2551 298.893 34.4716 298.935C34.6882 298.993 34.8382 299.185 34.8382 299.402C34.8382 301.756 35.2797 303.867 35.8045 304.093C36.0878 304.193 36.246 304.134 36.3377 304.076C37.0208 303.659 37.2707 301.797 37.379 301.005L37.4123 300.788C37.4456 300.521 37.6789 300.337 37.9538 300.379C38.2121 300.412 38.3953 300.663 38.362 300.921L38.3287 301.138C38.1787 302.231 37.9038 304.259 36.8292 304.91C36.6542 305.019 36.4043 305.119 36.0794 305.119C35.8962 305.119 35.6796 305.086 35.4463 305.002C34.3633 304.535 34.0218 302.315 33.9135 300.729C33.4553 301.13 32.9138 301.364 32.339 301.414C31.3894 301.489 30.498 301.063 29.7816 300.17C28.1738 297.842 29.365 294.712 31.2977 292.951Z" fill="#EFDCBD"/>
<path d="M42.3191 278.955C42.0108 279.122 41.6859 279.206 41.361 279.206C41.0362 279.206 40.7029 279.122 40.378 278.955C39.8782 278.705 39.52 278.254 39.3367 277.628C38.8952 276.176 39.4617 273.965 40.0198 272.988C40.1531 272.755 40.4447 272.671 40.6779 272.805C40.9112 272.938 40.9945 273.23 40.8529 273.464C40.453 274.173 39.8865 276.135 40.2614 277.353C40.3697 277.72 40.553 277.962 40.8196 278.096C41.2028 278.279 41.536 278.288 41.8692 278.104C42.9355 277.52 43.6936 275.242 43.8102 274.132C43.8352 273.873 44.0601 273.689 44.3434 273.706C44.6099 273.731 44.7932 273.973 44.7682 274.24C44.6433 275.367 43.8519 278.113 42.3274 278.947L42.3191 278.955Z" fill="#EFDCBD"/>
<path d="M40.828 271.152C40.828 271.152 40.7697 271.152 40.7447 271.152C40.0449 271.152 39.4284 270.768 39.0452 270.067C38.0872 268.148 40.703 264.242 41.861 263.082C42.0526 262.898 42.3525 262.898 42.5441 263.082C42.7273 263.274 42.7273 263.574 42.5441 263.766C41.3028 265.01 39.2952 268.415 39.8949 269.617C40.1115 270.009 40.4198 270.209 40.7863 270.184C41.3445 270.159 41.9443 269.683 42.2442 269.016C42.3525 268.774 42.6357 268.665 42.8773 268.774C43.1189 268.882 43.2272 269.166 43.1189 269.408C42.6773 270.41 41.7527 271.111 40.828 271.152Z" fill="#EFDCBD"/>
<path d="M53.4569 336.757C53.6735 336.916 53.7151 337.216 53.5652 337.433C52.3822 339.061 50.2413 345.02 52.3323 346.555C52.6238 346.755 52.8987 346.781 53.2153 346.647C53.8984 346.338 54.5648 345.287 54.8314 344.394C54.8814 344.168 54.923 343.976 54.9564 343.818C55.0064 343.567 55.2396 343.384 55.4979 343.426C55.7561 343.467 55.931 343.701 55.906 343.96C55.8894 344.143 55.8394 344.36 55.7811 344.586C55.7311 344.819 55.6645 345.07 55.6061 345.353C55.148 347.281 54.19 351.304 55.2146 352.022C55.7311 352.355 56.0727 352.239 56.2809 352.122C57.8804 351.237 58.8051 346.163 58.8051 344.719C58.8051 344.452 59.0217 344.235 59.2882 344.235C59.5548 344.235 59.7714 344.452 59.7714 344.719C59.7714 345.837 58.9467 351.755 56.7474 352.965C56.5142 353.09 56.2143 353.198 55.8561 353.198C55.4979 353.198 55.1146 353.098 54.6815 352.823C53.5152 352.005 53.6818 349.793 54.2233 347.156C54.04 347.315 53.8401 347.448 53.6235 347.54C52.9987 347.824 52.3656 347.765 51.7908 347.356C49.0167 345.32 51.4909 338.71 52.8071 336.883C52.9654 336.666 53.2653 336.616 53.4819 336.774L53.4569 336.757Z" fill="#FFF3DB"/>
<path d="M20.993 327.335L21.0846 327.152C21.2012 326.91 21.4928 326.818 21.7344 326.935C21.9676 327.051 22.0676 327.344 21.951 327.577L21.8593 327.761C20.743 329.989 18.4272 334.638 19.835 336.899C20.0433 337.208 20.3515 337.559 20.6431 337.517C21.2012 337.433 22.0009 336.115 22.5008 334.454C22.5758 334.195 22.8507 334.053 23.1006 334.129C23.3588 334.204 23.5004 334.471 23.4255 334.729C23.1839 335.547 22.2675 338.251 20.793 338.468C20.7264 338.477 20.6514 338.485 20.5848 338.485C20.0266 338.485 19.5018 338.134 19.027 337.417C17.3275 334.688 19.8017 329.714 21.0013 327.327L20.993 327.335Z" fill="#EFDCBD"/>
<path d="M26.1248 334.93C26.383 334.996 26.5413 335.255 26.4747 335.514C25.45 339.62 25.3417 342.866 26.2247 343.409C26.6579 343.676 27.5743 343.259 28.7489 342.257C28.9488 342.09 29.2571 342.107 29.432 342.316C29.6069 342.516 29.5819 342.825 29.3737 342.992C28.2241 343.968 27.2911 344.452 26.533 344.452C26.2331 344.452 25.9665 344.377 25.7166 344.227C23.8339 343.058 24.9668 337.575 25.5416 335.272C25.6083 335.013 25.8665 334.855 26.1248 334.921V334.93Z" fill="#EFDCBD"/>
<path d="M79.773 284.222C80.8976 288.828 87.4788 291.182 94.4681 289.471C101.457 287.76 106.214 282.628 105.089 278.021C103.965 273.414 97.3837 271.06 90.3944 272.771C83.4051 274.482 78.6484 279.615 79.773 284.222Z" fill="#593A42"/>
<path d="M98.3835 273.748C100.624 274.299 102.674 276.11 103.157 278.413C103.424 279.682 101.441 279.924 101.174 278.672C100.883 277.311 99.4082 276.051 98.092 275.734C96.8507 275.434 97.1173 273.447 98.3752 273.748H98.3835Z" fill="#936170"/>
<path d="M103.39 280.207C103.657 280.908 103.632 281.643 103.298 282.319C102.732 283.47 100.891 282.678 101.466 281.518C101.574 281.301 101.624 281.184 101.541 280.958C101.083 279.748 102.94 278.997 103.39 280.207Z" fill="#936170"/>
<path d="M79.6064 270.668C79.6064 272.246 80.4645 273.514 81.5225 273.514C82.5804 273.514 83.4385 272.237 83.4385 270.668C83.4385 269.099 82.5804 267.814 81.5225 267.814C80.4645 267.814 79.6064 269.091 79.6064 270.668Z" fill="#593A42"/>
<path d="M67.3438 270.668C67.3438 272.246 68.2018 273.514 69.2598 273.514C70.3177 273.514 71.1758 272.237 71.1758 270.668C71.1758 269.099 70.3177 267.814 69.2598 267.814C68.2018 267.814 67.3438 269.091 67.3438 270.668Z" fill="#593A42"/>
<ellipse cx="132.5" cy="263" rx="6.5" ry="9" fill="#E0EC89"/>
</g>
<defs>
<clipPath id="clip0_1520_2">
<rect width="266.613" height="162.688" fill="white" transform="translate(166.983 78.3625)"/>
</clipPath>
<clipPath id="clip1_1520_2">
<rect width="162.789" height="267.71" fill="white" transform="matrix(0.0638427 0.99796 -0.999722 0.0235648 598.607 57.3114)"/>
</clipPath>
<clipPath id="clip2_1520_2">
<rect width="239.229" height="202.333" fill="white" transform="matrix(-0.923101 0.384559 -0.749058 -0.662505 422.132 268.002)"/>
</clipPath>
<clipPath id="clip3_1520_2">
<rect width="268.016" height="162.688" fill="white"/>
</clipPath>
<clipPath id="clip4_1520_2">
<rect y="55" width="592" height="305" rx="30" fill="white"/>
</clipPath>
</defs>
</svg>
