<svg width="619" height="357" viewBox="0 0 619 357" fill="none" xmlns="http://www.w3.org/2000/svg">
<g clip-path="url(#clip0_1502_3)">
<path d="M256.769 197.016C253.118 178.401 248.313 158.153 229.082 145.692C214.138 136.009 190.286 130.302 187.817 115.801C185.565 102.566 205.312 92.0038 223.525 92C241.737 91.9962 258.344 98.9959 274.754 104.782C322.901 121.759 377.028 129.54 430.365 127.153C436.193 134.729 431.385 144.592 423.326 150.978C415.267 157.365 404.474 161.494 395.345 167.055C376.017 178.83 364.754 197.378 365.761 215.775C366.313 225.875 370.319 235.71 371.625 245.773C372.931 255.836 371.037 266.86 361.647 274.27C342.781 289.156 297.623 283.349 279.898 269.264C258.682 252.408 260.897 218.071 256.769 197.016Z" fill="#E0EC89"/>
</g>
<g clip-path="url(#clip1_1502_3)">
<path d="M462.775 249.108C481.356 253.576 499.121 262.958 518.49 260.566C537.423 258.228 550.18 244.761 552.48 231.454C554.78 218.148 549.016 204.893 543.587 192.045C538.158 179.196 532.952 165.745 536.361 152.553C539.166 141.705 547.552 132.027 554.778 122.217C562.003 112.407 568.331 101.624 566.493 90.6811C564.656 79.7385 551.945 69.0017 536.142 69.2919C522.309 69.5463 511.104 77.9937 506.842 87.1763C502.58 96.3595 503.618 106.253 503.892 115.897C504.165 125.542 503.426 135.694 496.222 143.939C483.862 158.085 457.478 161.904 437.082 170.401C409.728 181.796 393.217 203.873 392.7 225.843C392.51 233.927 392.694 248.001 407.558 249.186C415.623 249.829 425.609 246.373 433.993 246.165C443.74 245.924 453.555 246.892 462.775 249.108Z" fill="#E0EC89"/>
</g>
<g clip-path="url(#clip2_1502_3)">
<mask id="mask0_1502_3" style="mask-type:luminance" maskUnits="userSpaceOnUse" x="-156" y="265" width="360" height="253">
<path d="M-16.8761 517.719L203.956 409.711L64.8773 265.296L-155.955 373.304L-16.8761 517.719Z" fill="white"/>
</mask>
<g mask="url(#mask0_1502_3)">
<path d="M133.542 364.28L113.556 357.475C113.22 357.36 112.837 357.548 112.866 357.812L114.583 373.552C114.651 374.175 114.799 374.774 115.017 375.346C117.208 381.097 126.53 384.053 134.051 381.173C134.483 381.008 134.911 380.823 135.331 380.617L135.335 380.616C136.639 379.978 137.718 379.219 138.576 378.383C139.58 377.404 140.28 376.317 140.683 375.188C140.777 374.922 140.856 374.655 140.917 374.386C141.258 372.904 141.106 371.376 140.474 369.944C139.436 367.589 137.102 365.492 133.542 364.28ZM131.671 375.64C128.908 377.527 124.432 376.934 122.806 374.465C121.821 372.969 122.298 371.142 123.971 369.999C126.735 368.112 131.21 368.705 132.837 371.174C133.822 372.669 133.345 374.497 131.671 375.64Z" fill="#E0EC89"/>
<path d="M122.809 316.42L102.824 309.614C102.488 309.5 102.105 309.688 102.134 309.952L103.851 325.692C103.919 326.315 104.067 326.914 104.284 327.486C106.475 333.237 115.797 336.193 123.318 333.313C123.751 333.148 124.179 332.963 124.599 332.757L124.602 332.756C125.907 332.118 126.986 331.359 127.843 330.523C128.848 329.544 129.547 328.457 129.95 327.328C130.045 327.062 130.124 326.795 130.184 326.526C130.526 325.044 130.374 323.516 129.741 322.084C128.704 319.729 126.37 317.632 122.809 316.42ZM120.939 327.779C118.175 329.667 113.699 329.073 112.073 326.604C111.088 325.109 111.565 323.281 113.239 322.138C116.002 320.251 120.478 320.845 122.104 323.314C123.089 324.809 122.612 326.637 120.939 327.779Z" fill="#E0EC89"/>
<path d="M115.704 323.522C114.59 324.066 114.307 325.152 115.072 325.945C115.836 326.739 117.359 326.941 118.473 326.396C119.586 325.851 119.87 324.766 119.105 323.973C118.341 323.179 116.818 322.977 115.704 323.522Z" fill="#E0EC89"/>
<path d="M67.6007 343.422L47.6151 336.617C47.2794 336.502 46.8963 336.69 46.925 336.954L48.6423 352.694C48.7103 353.317 48.8583 353.916 49.0757 354.488C51.2668 360.239 60.5889 363.195 68.11 360.316C68.5424 360.15 68.9701 359.965 69.3903 359.759L69.3936 359.758C70.6981 359.12 71.777 358.361 72.6347 357.526C73.6393 356.546 74.3387 355.459 74.7417 354.33C74.8361 354.064 74.9155 353.797 74.976 353.528C75.3176 352.046 75.1651 350.518 74.5328 349.086C73.4952 346.731 71.1612 344.634 67.6007 343.422ZM65.7301 354.782C62.9663 356.669 58.4902 356.075 56.8644 353.606C55.8793 352.111 56.3564 350.283 58.0301 349.141C60.7939 347.253 65.2691 347.847 66.8958 350.316C67.881 351.811 67.4039 353.639 65.7301 354.782Z" fill="#E0EC89"/>
<path d="M60.4958 350.524C59.3819 351.069 59.0987 352.154 59.8631 352.948C60.6276 353.741 62.1502 353.943 63.264 353.398C64.3778 352.854 64.6611 351.769 63.8966 350.975C63.1322 350.181 61.6096 349.979 60.4958 350.524Z" fill="#E0EC89"/>
<path d="M64.0026 292.072L44.017 285.267C43.6813 285.153 43.2981 285.34 43.3269 285.605L45.0441 301.345C45.1121 301.968 45.2602 302.567 45.4775 303.138C47.6687 308.89 56.9908 311.846 64.5118 308.966C64.9442 308.8 65.372 308.615 65.7921 308.41L65.7954 308.408C67.1 307.77 68.1789 307.012 69.0365 306.176C70.0412 305.196 70.7405 304.109 71.1436 302.98C71.2379 302.715 71.3174 302.447 71.3778 302.179C71.7194 300.697 71.567 299.168 70.9346 297.737C69.897 295.382 67.563 293.284 64.0026 292.072ZM62.132 303.432C59.3682 305.319 54.892 304.726 53.2663 302.257C52.2811 300.762 52.7583 298.934 54.432 297.791C57.1958 295.904 61.671 296.497 63.2977 298.966C64.2828 300.462 63.8057 302.289 62.132 303.432Z" fill="#E0EC89"/>
<path d="M56.8976 299.174C55.7838 299.719 55.5006 300.804 56.265 301.598C57.0294 302.392 58.5521 302.594 59.6659 302.049C60.7797 301.504 61.0629 300.419 60.2985 299.625C59.5341 298.832 58.0115 298.63 56.8976 299.174Z" fill="#E0EC89"/>
</g>
<mask id="mask1_1502_3" style="mask-type:luminance" maskUnits="userSpaceOnUse" x="-156" y="265" width="360" height="253">
<path d="M-16.8761 517.719L203.956 409.711L64.8773 265.296L-155.955 373.304L-16.8761 517.719Z" fill="white"/>
</mask>
<g mask="url(#mask1_1502_3)">
<path d="M87.842 331.566C86.3833 332.28 86.0123 333.701 87.0134 334.74C88.0145 335.78 90.0086 336.044 91.4673 335.331C92.9259 334.617 93.2968 333.196 92.2957 332.157C91.2946 331.117 89.3006 330.853 87.842 331.566Z" fill="#3C3C3B"/>
<path d="M146.153 349.692C144.694 350.405 144.323 351.826 145.324 352.866C146.326 353.905 148.32 354.169 149.778 353.456C151.237 352.743 151.608 351.321 150.607 350.282C149.606 349.242 147.612 348.978 146.153 349.692Z" fill="#3C3C3B"/>
<path d="M125.2 343.356C122.859 344.5 122.264 346.78 123.87 348.448C125.477 350.116 128.676 350.54 131.017 349.396C133.357 348.251 133.952 345.971 132.346 344.303C130.74 342.635 127.54 342.211 125.2 343.356Z" fill="#3C3C3B"/>
<path d="M72.8312 273.555C71.3725 274.269 71.0016 275.69 72.0027 276.729C73.0038 277.769 74.9978 278.033 76.4565 277.32C77.9152 276.606 78.2861 275.185 77.285 274.146C76.2839 273.106 74.2899 272.842 72.8312 273.555Z" fill="#3C3C3B"/>
<path d="M82.3101 298.812C79.9697 299.957 79.3745 302.237 80.9808 303.904C82.5871 305.572 85.7865 305.997 88.127 304.852C90.4674 303.707 91.0626 301.427 89.4563 299.759C87.85 298.091 84.6506 297.667 82.3101 298.812Z" fill="#3C3C3B"/>
<path d="M51.878 267.219C49.5375 268.363 48.9424 270.643 50.5487 272.311C52.1549 273.979 55.3544 274.403 57.6948 273.259C60.0353 272.114 60.6305 269.834 59.0242 268.166C57.4179 266.498 54.2184 266.074 51.878 267.219Z" fill="#3C3C3B"/>
<path d="M83.1852 284.306C81.7265 285.02 81.3556 286.441 82.3567 287.48C83.3578 288.52 85.3518 288.784 86.8105 288.071C88.2692 287.357 88.6401 285.936 87.639 284.897C86.6379 283.857 84.6439 283.593 83.1852 284.306Z" fill="#3C3C3B"/>
<path d="M97.587 340.285C93.961 342.059 93.039 345.591 95.5275 348.175C98.016 350.759 102.973 351.416 106.599 349.643C110.225 347.869 111.147 344.337 108.658 341.753C106.17 339.169 101.213 338.512 97.587 340.285Z" fill="#3C3C3B"/>
<path d="M72.6876 317.265C69.0617 319.039 68.1396 322.571 70.6281 325.155C73.1166 327.739 78.0734 328.396 81.6993 326.623C85.3252 324.849 86.2473 321.317 83.7588 318.733C81.2703 316.149 76.3135 315.492 72.6876 317.265Z" fill="#3C3C3B"/>
</g>
<path d="M388.276 305.321C393.353 313.593 389.316 323.457 381.478 330.327C373.639 337.197 362.587 341.699 351.789 346.051C343.128 349.542 334.348 353.067 324.693 354.848C315.039 356.628 304.25 356.497 295.45 352.927C277.703 345.729 274.521 328.294 261.102 317.247C247.755 306.259 226.103 302.984 206.044 301.806C185.985 300.627 165.035 300.741 146.917 294.228C123.403 285.776 109.595 268.041 97.2476 251.36C94.9579 248.266 92.6667 244.452 95.1515 241.508C98.0057 238.127 105.005 238.421 110.295 239.718C125.353 243.412 137.408 251.584 150.912 257.695C164.414 263.806 181.967 267.853 195.744 262.481C200.997 260.433 205.127 257.215 209.879 254.62C214.631 252.027 220.598 249.991 226.516 250.903C232.675 251.851 237.222 255.777 239.846 259.909C242.469 264.041 243.681 268.553 246.186 272.721C253.849 285.467 272.844 293.303 291.833 295.56C310.595 297.791 327.974 294.816 346.333 293.241C361.413 291.947 381.326 293.998 388.276 305.321Z" fill="#E0EC89"/>
</g>
<g clip-path="url(#clip3_1502_3)">
<path d="M11.8696 103.988C6.9086 92.3628 12.2837 79.3433 22.5614 69.7446C34.5645 58.5343 53.1883 51.2229 72.6409 50.0835C88.019 49.183 103.99 51.9148 118.662 48.4395C134.748 44.6291 145.864 34.2162 159.332 26.761C184.964 12.5716 221.334 9.46835 250.774 18.9591C265.864 23.8239 280.439 34.2014 277.678 46.0534C275.798 54.1275 266.239 60.2027 255.981 63.5514C245.722 66.9001 234.443 68.1956 223.828 70.8901C187.827 80.0281 161.613 106.662 161.284 134.434C161.157 145.2 164.268 156.865 156.615 166.075C150.483 173.455 138.285 177.439 126.444 177.49C114.603 177.541 103.152 174.118 93.2258 169.415C73.4704 160.055 61.2763 146.468 53.1206 130.687C48.3231 121.404 45.3193 124.276 33.5079 120.95C23.3722 118.096 15.0878 111.528 11.8696 103.988Z" fill="#E0EC89"/>
</g>
<g clip-path="url(#clip4_1502_3)">
<path d="M91.6526 139.078C90.2197 118.824 94.0851 90.9241 97.4423 90.4985C100.616 90.1062 113.187 109.318 118.61 117.872C112.312 119.283 106.889 123.489 102.082 127.603C98.142 131.058 94.6016 134.872 91.6526 139.07V139.078Z" fill="#FA9700"/>
<path d="M102.082 127.612C106.889 123.497 112.312 119.283 118.61 117.88C120.159 120.326 121.134 121.903 121.134 121.903L93.3684 150.754C92.5104 147.457 91.9606 143.443 91.6523 139.087C94.6097 134.889 98.1418 131.075 102.082 127.62V127.612Z" fill="#F27006"/>
<path d="M165.053 139.078C164.745 143.435 164.195 147.449 163.337 150.746L135.571 121.895C135.571 121.895 136.546 120.317 138.095 117.872C144.393 119.283 149.808 123.489 154.623 127.603C158.564 131.058 162.104 134.872 165.053 139.07V139.078Z" fill="#F27006"/>
<path d="M159.263 90.4984C162.62 90.924 166.486 118.815 165.053 139.078C162.104 134.881 158.563 131.067 154.623 127.612C149.808 123.497 144.385 119.283 138.095 117.88C143.527 109.326 156.089 90.1062 159.263 90.5068V90.4984Z" fill="#FA9700"/>
<path d="M141.277 246.629C127.524 253.264 112.012 249.541 98.0254 244.292L100.5 202.564L154.831 198.733C157.647 203.966 160.388 209.34 163.045 214.807C160.071 227.976 153.773 240.486 141.269 246.629H141.277Z" fill="#D1D1D1"/>
<path d="M141.277 246.629C153.773 240.486 160.071 227.976 163.053 214.807C194.543 279.519 214.911 357 214.911 357H91.3442L98.0253 244.3C112.012 249.55 127.515 253.272 141.277 246.637V246.629Z" fill="#FA9700"/>
<path d="M96.6427 91.0994C104.015 98.285 104.732 110.862 103.299 121.135C101.949 129.982 97.6924 136.975 91.986 142.892C89.8784 124.04 93.2855 95.5643 96.6344 91.0994H96.6427Z" fill="#FEB8AC"/>
<path d="M160.063 91.0994C152.69 98.285 151.965 110.862 153.406 121.135C154.756 129.982 159.013 136.975 164.719 142.892C166.827 124.04 163.42 95.5643 160.071 91.0994H160.063Z" fill="#FEB8AC"/>
<path d="M128.357 245.961C159.113 245.961 164.869 192.357 167.169 166.577C169.459 140.798 150.857 118.84 128.357 118.84C105.856 118.84 87.2539 140.798 89.5448 166.577C91.8357 192.357 97.6004 245.961 128.357 245.961Z" fill="#FFF3DB"/>
<path d="M133.297 119.207C153.498 122.137 169.285 142.709 167.16 166.569C166.019 179.438 164.003 199.251 158.447 215.858C152.982 193.776 135.146 182.768 133.522 170.141C131.931 157.781 132.822 130.808 133.297 119.199V119.207Z" fill="#FA9700"/>
<path d="M123.408 119.207C123.875 130.816 124.775 157.789 123.184 170.149C121.559 182.776 103.723 193.784 98.2586 215.867C92.7022 199.259 90.6945 179.446 89.5449 166.577C87.4206 142.709 103.207 122.145 123.408 119.216V119.207Z" fill="#FA9700"/>
<path d="M111.179 178.445C107.039 178.445 103.807 173.913 103.807 168.121C103.807 167.379 104.406 166.778 105.148 166.778C105.889 166.778 106.489 167.379 106.489 168.121C106.489 172.261 108.638 175.758 111.187 175.758C113.737 175.758 115.878 172.261 115.878 168.121C115.878 167.379 116.477 166.778 117.219 166.778C117.96 166.778 118.56 167.379 118.56 168.121C118.56 173.913 115.319 178.445 111.187 178.445H111.179Z" fill="#57484C"/>
<path d="M148.8 178.445C144.668 178.445 141.427 173.913 141.427 168.121C141.427 167.379 142.027 166.778 142.768 166.778C143.51 166.778 144.11 167.379 144.11 168.121C144.11 172.261 146.259 175.758 148.808 175.758C151.357 175.758 153.498 172.261 153.498 168.121C153.498 167.379 154.098 166.778 154.839 166.778C155.581 166.778 156.181 167.379 156.181 168.121C156.181 173.913 152.94 178.445 148.808 178.445H148.8Z" fill="#57484C"/>
<path d="M142.76 227.342C142.76 233.685 136.304 238.826 128.357 238.826C120.409 238.826 113.945 233.685 113.945 227.342C113.945 220.999 120.393 215.858 128.357 215.858C136.321 215.858 142.76 220.999 142.76 227.342Z" fill="#57484C"/>
<path d="M123.408 217.845C120.359 218.629 117.969 220.891 116.869 223.82C116.094 225.873 119.376 226.758 120.143 224.721C120.818 222.91 122.475 221.6 124.316 221.124C126.432 220.574 125.533 217.302 123.417 217.845H123.408Z" fill="#F9F6F6"/>
<path d="M117.802 225.923C116.969 225.698 115.886 226.199 115.711 227.108C115.628 227.559 115.52 227.993 115.436 228.444C115.27 229.353 115.669 230.271 116.619 230.538C117.444 230.764 118.544 230.263 118.702 229.353C118.785 228.903 118.893 228.46 118.977 228.018C119.143 227.108 118.743 226.19 117.794 225.923H117.802Z" fill="#F9F6F6"/>
<path d="M109.655 307.978C112.654 292.305 127.624 228.627 151.591 261.968C162.237 276.64 167.235 295.643 171.226 312.643C174.716 327.173 177.115 342.128 179.14 357H103.632C104.99 340.567 106.672 324.177 109.655 307.978Z" fill="#FFF3DB"/>
<path d="M529.488 154.902C529.963 155.261 532.562 164.291 534.119 169.841L521.174 174.122V166.227C521.174 166.227 528.805 154.384 529.488 154.902Z" fill="#FEB8AC"/>
<path d="M504.138 162.421C505.513 159.333 524.523 144.094 530.696 145.121C536.869 146.147 540.376 167.779 540.376 167.779L534.128 169.849C532.57 164.291 529.971 155.269 529.496 154.91C528.813 154.393 521.182 166.235 521.182 166.235C521.182 166.235 510.311 179.28 508.77 179.797C507.229 180.314 502.772 165.518 504.146 162.43L504.138 162.421Z" fill="#352328"/>
<path d="M566.667 138.252C566.15 137.226 555.512 134.989 555.512 134.989C555.512 134.989 550.372 134.13 550.031 133.27C549.689 132.41 556.537 126.435 561.052 126.51C570.965 131.25 586.369 155.753 575.581 204.158L571.682 199.125C578.438 157.739 566.675 138.252 566.675 138.252H566.667Z" fill="#352328"/>
<path d="M555.521 134.989C555.521 134.989 566.159 137.217 566.675 138.252C566.675 138.252 578.438 157.739 571.682 199.125L548.34 168.973L555.521 134.989Z" fill="#FEB8AC"/>
<path d="M475.389 204.016C477.83 192.774 508.078 187.4 508.078 187.4C527.105 152.699 558.328 161.495 572.965 187.4C587.601 213.305 591.992 357 591.992 357H502.422L520.582 231.623C478.263 230.939 472.948 215.258 475.389 204.016Z" fill="#593A42"/>
<path d="M552.488 357H502.422L520.582 231.623C520.582 231.623 526.98 232.4 535.552 231.774C535.552 231.774 547.957 324.936 552.488 357Z" fill="#352328"/>
<path d="M530.696 188.326C530.696 196.171 535.761 202.531 542 202.531C548.24 202.531 553.305 196.171 553.305 188.326C553.305 180.481 548.24 174.122 542 174.122C535.761 174.122 530.696 180.481 530.696 188.326Z" fill="#352328"/>
<path d="M537.377 188.326C537.377 190.788 538.718 192.791 540.376 192.791C542.034 192.791 543.375 190.796 543.375 188.326C543.375 185.856 542.034 183.861 540.376 183.861C538.718 183.861 537.377 185.856 537.377 188.326Z" fill="#191113"/>
<path d="M518.175 187.517C518.175 189.979 519.516 191.973 521.174 191.973C522.832 191.973 524.173 189.979 524.173 187.517C524.173 185.055 522.832 183.052 521.174 183.052C519.516 183.052 518.175 185.046 518.175 187.517Z" fill="#191113"/>
<path d="M473.981 202.531C473.981 207.505 479.046 211.544 485.286 211.544C491.526 211.544 496.59 207.505 496.59 202.531C496.59 197.556 491.526 193.517 485.286 193.517C479.046 193.517 473.981 197.548 473.981 202.531Z" fill="#191113"/>
<path d="M488.643 195.078C491.034 195.695 492.917 197.465 493.783 199.768C494.391 201.379 491.817 202.071 491.217 200.477C490.684 199.059 489.385 198.024 487.943 197.657C486.286 197.231 486.985 194.652 488.651 195.086L488.643 195.078Z" fill="#593A42"/>
<path d="M493.042 201.42C493.691 201.245 494.549 201.637 494.674 202.355C494.741 202.706 494.824 203.056 494.891 203.407C495.016 204.124 494.708 204.842 493.958 205.042C493.308 205.218 492.45 204.825 492.325 204.108C492.267 203.757 492.175 203.407 492.109 203.056C491.984 202.338 492.292 201.621 493.042 201.412V201.42Z" fill="#593A42"/>
<path d="M523.815 216.1C523.815 216.1 538.568 223.211 534.969 231.966C531.37 240.72 512.96 222.827 512.96 222.827C512.96 222.827 518.133 221.742 523.815 216.109V216.1Z" fill="#FEB8AC"/>
<path d="M527.73 228.836C524.948 225.865 521.582 223.211 517.975 221.3C517.217 220.899 517.892 219.748 518.65 220.148C522.332 222.101 525.823 224.855 528.672 227.893C529.255 228.519 528.322 229.462 527.73 228.836Z" fill="#FC8686"/>
<path d="M528.08 209.482C526.272 215.233 522.415 219.289 517.067 221.926C509.778 225.523 502.73 224.63 495.224 222.31C494.408 222.059 494.758 220.766 495.574 221.024C502.255 223.094 508.237 223.979 514.926 221.417C520.616 219.238 524.956 214.974 526.789 209.132C527.047 208.314 528.33 208.665 528.072 209.482H528.08Z" fill="#352328"/>
<path d="M396.099 203.44C394.033 205.677 392.076 207.947 390.334 210.342C392.7 185.672 401.439 170.124 404.58 170.116C408.487 170.116 412.327 184.729 414.301 193.634C406.887 194.635 401.639 197.556 396.108 203.44H396.099Z" fill="#E0EC89"/>
<path d="M396.099 203.44C401.631 197.556 406.879 194.644 414.293 193.634C415.159 197.531 415.668 200.344 415.668 200.344L389.81 218.396C389.901 215.616 390.084 212.929 390.326 210.342C392.075 207.947 394.025 205.677 396.091 203.44H396.099Z" fill="#83DD59"/>
<path d="M468.275 212.487C468.425 214.406 468.541 216.376 468.608 218.396L442.75 200.344C442.75 200.344 443.208 197.799 444 194.202C448.915 195.729 453.746 198.95 457.612 201.537C461.744 204.475 465.392 208.264 468.266 212.495L468.275 212.487Z" fill="#83DD59"/>
<path d="M453.846 170.116C457.07 170.116 466.225 186.59 468.275 212.495C465.401 208.264 461.752 204.475 457.62 201.537C453.755 198.959 448.923 195.729 444.008 194.202C445.94 185.363 449.856 170.116 453.854 170.116H453.846Z" fill="#E0EC89"/>
<path d="M404.571 176.784C405.804 176.559 411.602 199.009 410.194 200.786C408.787 202.564 395.924 212.771 395.258 211.227C394.591 209.674 402.139 177.226 404.58 176.784H404.571Z" fill="#FEB8AC"/>
<path d="M453.846 176.784C452.613 176.559 446.815 199.009 448.223 200.786C449.631 202.564 462.493 212.771 463.16 211.227C463.826 209.674 456.279 177.226 453.838 176.784H453.846Z" fill="#FEB8AC"/>
<path d="M394.392 357C394.392 357 377.414 271.541 384.378 234.912C391.343 198.283 418.767 194.36 429.213 194.36C439.66 194.36 467.084 198.283 474.04 234.912C481.004 271.541 464.026 357 464.026 357H394.383H394.392Z" fill="#FFF3DB"/>
<path d="M430.796 194.393C442.192 194.802 467.4 200.002 474.04 234.912C481.004 271.541 464.026 357 464.026 357H461.96C478.396 300.6 475.597 229.746 430.796 194.393Z" fill="#FFF9EE"/>
<path d="M432.887 229.671C428.313 218.796 431.404 199.676 428.305 199.676C425.206 199.676 428.305 218.796 423.723 229.671C420.191 238.083 397.532 228.577 387.436 223.837C397.266 197.481 419.925 194.36 429.205 194.36C438.485 194.36 460.727 197.406 470.707 223.103C461.61 227.484 436.611 238.534 432.887 229.671Z" fill="#E0EC89"/>
<path d="M382.804 263.921C385.569 273.836 389.935 283.383 395.258 292.58C405.904 311.032 418.55 328.141 423.881 349.038C424.456 351.2 425.239 353.987 425.889 357H394.391C394.391 357 383.928 304.297 382.804 263.921Z" fill="#E0EC89"/>
<path d="M463.16 292.58C468.483 283.383 472.848 273.827 475.614 263.921C474.49 304.289 464.026 357 464.026 357H432.529C433.187 353.987 433.962 351.2 434.536 349.038C439.86 328.149 452.505 311.032 463.16 292.58Z" fill="#E0EC89"/>
<path d="M430.796 194.385C440.759 194.744 461.269 198.775 470.707 223.103C467.7 224.555 462.952 226.725 457.812 228.669C451.431 215.391 442.559 203.665 430.788 194.385H430.796Z" fill="#E0EC89"/>
<path d="M464.026 357H461.96C469.216 332.088 472.723 304.364 470.516 278.125C472.54 273.477 474.273 268.745 475.614 263.929C474.49 304.297 464.026 357.008 464.026 357.008V357Z" fill="#FF9E10"/>
<path d="M437.493 222.393C438.002 222.393 438.41 221.984 438.41 221.475C438.41 218.638 439.884 216.242 441.625 216.242C443.367 216.242 444.841 218.638 444.841 221.475C444.841 221.984 445.249 222.393 445.757 222.393C446.266 222.393 446.674 221.984 446.674 221.475C446.674 217.511 444.458 214.406 441.625 214.406C438.793 214.406 436.577 217.511 436.577 221.475C436.577 221.984 436.985 222.393 437.493 222.393Z" fill="#593A42"/>
<path d="M412.827 222.393C413.335 222.393 413.743 221.984 413.743 221.475C413.743 218.638 415.218 216.242 416.959 216.242C418.7 216.242 420.175 218.638 420.175 221.475C420.175 221.984 420.583 222.393 421.091 222.393C421.599 222.393 422.007 221.984 422.007 221.475C422.007 217.511 419.791 214.406 416.959 214.406C414.127 214.406 411.911 217.511 411.911 221.475C411.911 221.984 412.319 222.393 412.827 222.393Z" fill="#593A42"/>
<path d="M445.749 240.837C441.692 248.023 434.961 251.494 426.78 251.094C418.8 250.71 410.669 245.252 409.553 236.906C409.445 236.063 410.719 235.704 410.836 236.556C411.96 244.951 419.958 249.433 427.747 249.809C435.053 250.159 441.067 246.437 444.608 240.161C445.033 239.41 446.182 240.086 445.757 240.837H445.749Z" fill="#593A42"/>
<path d="M427.864 250.326C427.847 246.838 428.247 243.332 427.664 239.861C427.522 239.018 428.805 238.659 428.947 239.51C429.555 243.107 429.172 246.704 429.197 250.326C429.197 251.186 427.872 251.186 427.864 250.326Z" fill="#593A42"/>
<path d="M417.092 234.002C417.092 238.976 422.157 243.015 428.397 243.015C434.636 243.015 439.701 238.984 439.701 234.002C439.701 229.02 434.636 224.989 428.397 224.989C422.157 224.989 417.092 229.02 417.092 234.002Z" fill="#593A42"/>
<path d="M432.279 226.541C434.67 227.158 436.553 228.928 437.419 231.231C438.027 232.842 435.453 233.535 434.853 231.941C434.32 230.522 433.02 229.487 431.579 229.12C429.913 228.694 430.621 226.115 432.287 226.549L432.279 226.541Z" fill="#936170"/>
<path d="M436.686 232.884C437.336 232.708 438.194 233.101 438.319 233.818C438.385 234.169 438.477 234.519 438.535 234.87C438.66 235.588 438.352 236.305 437.602 236.514C436.952 236.698 436.094 236.297 435.969 235.579C435.911 235.229 435.819 234.887 435.753 234.528C435.62 233.818 435.936 233.092 436.686 232.892V232.884Z" fill="#936170"/>
<path d="M350.19 114.35C355.188 115.293 359.703 86.2839 371.741 82.9373C383.779 79.5907 404.255 75.2175 396.591 68.2072C388.935 61.1968 358.537 58.1006 350.923 69.2504C343.317 80.4085 338.461 112.147 350.19 114.359V114.35Z" fill="#352328"/>
<path d="M350.923 69.2338C358.529 58.084 388.935 61.1886 396.591 68.1906C398.465 69.9014 398.64 71.4621 397.691 72.8808C395.483 72.7974 393.259 72.8725 390.976 73.1562C375.532 74.5583 353.172 85.3492 343.167 99.3282C343.101 88.8377 346.55 75.6432 350.923 69.2338Z" fill="#593A42"/>
<path d="M324.399 167.595C330.788 173.037 340.918 176.751 340.918 176.751C339.852 207.855 347.749 245.485 357.104 278.3C313.019 221.533 324.399 167.604 324.399 167.604V167.595Z" fill="#EFDCBD"/>
<path d="M294.375 141.999C299.482 116.086 308.429 90.4901 340.818 96.5657C373.207 102.641 370.383 135.281 369.425 135.281C368.467 135.281 402.639 172.394 384.545 183.269C366.451 194.143 340.918 176.742 340.918 176.742C340.918 176.742 330.788 173.029 324.399 167.587C324.399 167.587 313.019 221.517 357.104 278.284C369.542 321.882 384.553 356.983 384.553 356.983H272.025C269.151 281.48 289.111 168.714 294.384 141.991L294.375 141.999Z" fill="#FFF3DB"/>
<path d="M325.898 153.817C325.898 153.817 311.203 149.561 308.262 157.898C305.322 166.244 329.272 165.275 329.272 165.275C329.272 165.275 326.34 161.286 325.898 153.817Z" fill="#FEB8AC"/>
<path d="M394.7 167.187C394.7 172.578 389.218 176.943 382.454 176.943C375.689 176.943 370.208 172.578 370.208 167.187C370.208 161.795 375.689 157.431 382.454 157.431C389.218 157.431 394.7 161.804 394.7 167.187Z" fill="#593A42"/>
<path d="M344.4 140.873C347.916 140.873 350.665 137.017 350.665 132.101C350.665 131.476 350.157 130.958 349.524 130.958C348.891 130.958 348.382 131.467 348.382 132.101C348.382 135.623 346.558 138.594 344.392 138.594C342.226 138.594 340.402 135.623 340.402 132.101C340.402 131.476 339.894 130.958 339.26 130.958C338.627 130.958 338.119 131.467 338.119 132.101C338.119 137.017 340.868 140.873 344.384 140.873H344.4Z" fill="#593A42"/>
<path d="M365.093 140.873C368.609 140.873 371.358 137.017 371.358 132.101C371.358 131.476 370.85 130.958 370.216 130.958C369.583 130.958 369.075 131.467 369.075 132.101C369.075 135.623 367.251 138.594 365.085 138.594C362.919 138.594 361.095 135.623 361.095 132.101C361.095 131.476 360.586 130.958 359.953 130.958C359.32 130.958 358.812 131.467 358.812 132.101C358.812 137.017 361.561 140.873 365.077 140.873H365.093Z" fill="#593A42"/>
<path d="M315.218 158.991C319.125 158.666 323.191 158.966 327.023 159.859C327.806 160.043 327.472 161.244 326.689 161.061C322.966 160.185 319.034 159.918 315.218 160.235C314.419 160.301 314.427 159.058 315.218 158.991Z" fill="#FC8686"/>
<path d="M378.256 159.116C375.665 159.784 373.632 161.704 372.691 164.191C372.041 165.935 374.823 166.686 375.473 164.958C376.048 163.414 377.456 162.304 379.022 161.904C380.821 161.437 380.055 158.649 378.256 159.116Z" fill="#936170"/>
<path d="M373.491 165.985C372.782 165.793 371.858 166.219 371.716 166.995C371.649 167.379 371.549 167.754 371.483 168.13C371.341 168.898 371.683 169.682 372.491 169.907C373.191 170.099 374.124 169.674 374.265 168.898C374.332 168.514 374.432 168.138 374.498 167.763C374.64 166.995 374.299 166.21 373.499 165.985H373.491Z" fill="#936170"/>
<path d="M318.642 115.051C323.482 113.499 316.335 85.0071 325.34 76.3359C334.337 67.6565 347.616 54.8709 337.552 52.3505C327.489 49.8302 299.274 61.5892 297.874 75.0257C296.475 88.4622 307.279 118.698 318.642 115.06V115.051Z" fill="#352328"/>
<path d="M327.406 275.73C325.382 261.008 336.145 250.318 348.891 246.036C351.323 257.036 354.139 267.91 357.096 278.301C359.812 287.831 362.661 296.961 365.435 305.407C349.174 306.4 329.314 291.069 327.398 275.738L327.406 275.73Z" fill="#593A42"/>
<path d="M299.307 169.473C296.716 180.732 292.784 190.646 285.245 195.145C289.011 170.592 292.559 151.205 294.375 142.008C295.292 137.376 296.325 132.752 297.599 128.321C306.005 140.814 303.772 151.597 299.307 169.473Z" fill="#593A42"/>
<path d="M319.742 357H272.025C271.408 340.701 271.85 322.658 272.983 304.122C278.914 305.04 285.187 307.026 291.593 309.513C312.811 318.017 324.599 335.961 319.75 357.008L319.742 357Z" fill="#593A42"/>
<path d="M328.139 147.14C325.407 153.325 326.631 159.375 329.88 165.075C332.704 170.024 337.561 172.603 342.543 174.898C343.267 175.232 342.634 176.308 341.918 175.975C336.153 173.329 331.463 170.366 328.256 164.741C324.99 159.008 324.39 152.582 327.064 146.523C327.389 145.788 328.464 146.423 328.139 147.149V147.14Z" fill="#593A42"/>
<path d="M348.89 246.036V246.053C349.474 248.682 350.073 251.294 350.698 253.898C350.815 254.382 350.931 254.866 351.048 255.35C351.54 257.378 352.039 259.398 352.548 261.401C352.731 262.135 352.922 262.861 353.106 263.587C353.572 265.407 354.055 267.218 354.539 269.02C354.722 269.721 354.913 270.422 355.105 271.115C355.763 273.527 356.421 275.93 357.096 278.292C349.823 268.928 344.067 259.64 339.51 250.651C342.376 248.707 345.558 247.146 348.882 246.028L348.89 246.036Z" fill="#352328"/>
<path d="M297.874 75.0173C299.274 61.5808 327.489 49.8301 337.552 52.3422C340.443 53.0683 341.401 54.6372 341.093 56.7153C332.337 61.7895 324.124 67.9068 317.867 75.8018C307.613 88.9629 310.17 102.124 316.026 115.285C305.68 114.092 296.583 87.4106 297.874 75.0173Z" fill="#593A42"/>
<path d="M295.716 357C295.716 357 301.29 265.907 275.132 222.502C248.966 179.104 218.084 195.003 206.072 213.046C206.072 213.046 188.486 224.646 171.758 224.221C171.758 224.221 179.481 255.158 212.936 241.413C212.936 241.413 241.668 243.558 247.249 277.933C252.823 312.309 211.653 357 211.653 357H295.716Z" fill="#8F7E70"/>
<path d="M205.205 213.597C221.233 224.363 212.936 241.413 212.936 241.413C179.481 255.166 171.758 224.221 171.758 224.221C186.303 224.596 201.49 215.875 205.205 213.588V213.597Z" fill="#FFF3DB"/>
<path d="M265.593 288.382C280.155 318.118 281.938 342.262 280.98 357H211.645C211.645 357 252.823 312.309 247.241 277.933C241.668 243.558 212.928 241.413 212.928 241.413C212.928 241.413 241.01 238.191 265.585 288.382H265.593Z" fill="#5A4B46"/>
<path d="M166.36 225.815C169.768 229.495 174.599 230.555 177.157 228.177C179.706 225.806 179.006 220.899 175.599 217.219C172.192 213.538 167.36 212.487 164.811 214.857C162.262 217.227 162.961 222.134 166.369 225.815H166.36Z" fill="#593A42"/>
<path d="M236.062 200.97C236.778 198.825 247.95 192.616 251.19 194.435C254.431 196.254 259.92 227.701 255.68 233.985C251.432 240.261 240.51 211.093 238.894 209.073C237.278 207.045 237.886 215.758 236.062 214.74C234.237 213.73 234.446 205.827 236.062 200.97Z" fill="#593A42"/>
<path d="M215.085 215.366C215.085 217.728 216.285 219.647 217.768 219.647C219.251 219.647 220.45 217.728 220.45 215.366C220.45 213.004 219.251 211.085 217.768 211.085C216.285 211.085 215.085 212.996 215.085 215.366Z" fill="#593A42"/>
<path d="M208.138 226.432C210.37 231.498 210.079 238.742 203.448 239.81C202.348 239.986 201.873 238.3 202.981 238.125C208.396 237.248 208.438 231.431 206.63 227.317C206.18 226.299 207.688 225.406 208.138 226.432Z" fill="#593A42"/>
<path d="M170.775 214.807C171.55 215.241 172.25 215.717 172.875 216.359C174.458 217.978 171.867 220.332 170.292 218.721C169.884 218.304 169.376 218.037 168.876 217.753C166.91 216.651 168.818 213.714 170.775 214.815V214.807Z" fill="#936170"/>
<path d="M175.441 218.512C175.982 218.946 176.365 219.372 176.749 219.948C177.273 220.749 176.79 221.901 176.015 222.31C175.107 222.785 174.183 222.368 173.658 221.575C173.616 221.533 173.583 221.492 173.541 221.45C172.8 220.857 172.467 219.889 173.025 219.03C173.508 218.295 174.699 217.92 175.441 218.512Z" fill="#936170"/>
<path d="M70.7178 251.962C70.7178 251.962 71.4509 243.808 74.0167 236.514C76.041 238.751 78.2653 240.812 80.6978 242.59L75.4662 250.635L70.7095 251.962H70.7178Z" fill="#EFDCBD"/>
<path d="M74.0249 236.514C74.7913 234.327 75.7244 232.224 76.8573 230.438C77.2655 229.796 77.7403 229.195 78.2652 228.619C78.1069 227.3 78.2069 225.831 78.8983 224.83C79.2982 224.171 80.0312 223.72 80.656 224.354C81.1392 224.847 81.0726 225.623 80.9892 226.265C81.0142 226.249 81.0392 226.24 81.0559 226.215C81.6224 224.262 81.8056 221.892 83.2052 220.373C83.8383 219.747 84.588 219.656 85.0046 220.524C85.521 221.567 85.0379 223.077 84.7963 224.121C85.4627 223.361 88.8116 219.322 90.0945 219.013C91.2441 218.754 91.1275 219.747 90.7776 220.532C90.4194 221.358 89.8113 222.068 89.1532 222.719C94.7846 221.425 100.274 222.201 101.566 225.564C104.231 232.475 84.9546 236.022 84.9546 236.022L80.6977 242.573C78.2652 240.795 76.0409 238.725 74.0166 236.497L74.0249 236.514Z" fill="#FFF3DB"/>
<path d="M51.1327 240.937C51.1327 240.937 56.0727 230.789 58.5469 232.274C61.0127 233.76 56.5726 240.937 56.5726 240.937C56.5726 240.937 67.194 233.368 68.6768 236.531C70.1596 239.702 62.254 243.908 62.254 243.908C62.254 243.908 79.2982 247.372 83.4968 248.857C87.6954 250.343 93.8683 255.292 86.2125 258.755L83.9883 270.381C83.9883 270.381 103.998 267.41 106.222 277.808C108.447 288.199 104.248 294.633 102.274 294.633C100.299 294.633 98.8166 291.662 98.8166 291.662C98.8166 291.662 99.8663 300.625 96.0925 301.627C93.585 302.294 92.1439 296.853 92.1439 296.853C92.1439 296.853 90.636 307.16 86.4625 307.001C84.2382 306.918 83.4468 300.583 83.4468 300.583C83.4468 300.583 77.3239 308.737 73.8667 307.001C70.4095 305.274 64.9697 296.853 64.9697 296.853C64.9697 296.853 72.8754 315.906 71.8924 324.319C70.901 332.731 67.4439 332.981 64.4782 330.01C64.4782 330.01 65.961 344.857 60.5296 356.983H0C0 356.983 38.5286 259.982 42.4856 249.091C42.4856 249.091 39.9532 234.411 44.2184 233.251C48.417 232.107 51.1327 240.92 51.1327 240.92V240.937Z" fill="#FFF3DB"/>
<path d="M50.6164 348.012C51.3161 341.235 49.4501 323.467 60.6463 327.907C59.2468 323 55.5147 311.775 64.6116 314.813C62.5123 311.074 54.3484 297.279 58.547 293.54C61.521 290.861 65.628 296.611 68.577 301.877C66.561 299.34 64.9615 296.861 64.9615 296.861C64.9615 296.861 72.8672 315.914 71.8842 324.327C70.8929 332.739 67.4357 332.99 64.47 330.019C64.47 330.019 65.9529 344.866 60.5214 356.992H30.4648C30.9813 354.146 32.0226 351.459 33.822 349.172C37.7874 344.031 46.1929 342.863 50.6247 348.003L50.6164 348.012Z" fill="#EFDCBD"/>
<path d="M98.8501 226.683C97.7089 230.589 84.48 234.185 84.48 234.185L72.9839 249.617C72.9839 249.617 79.0985 232.082 80.1898 230.346C81.2811 228.611 100.266 221.784 98.8418 226.674L98.8501 226.683Z" fill="#FEB8AC"/>
<path d="M29.8482 229.378C30.5397 229.428 30.9978 230.063 31.356 230.597C31.356 230.572 31.3727 230.547 31.381 230.513C30.523 228.669 29.0985 226.766 29.1568 224.697C29.2234 223.812 29.7233 223.244 30.6063 223.62C31.6809 224.062 32.314 225.523 32.8139 226.466C32.8139 225.456 32.6889 220.207 33.447 219.13C34.1384 218.179 34.7132 219.005 34.9632 219.823C35.2381 220.682 35.2464 221.617 35.1797 222.543C38.5619 217.853 43.2104 214.815 46.3926 216.493C52.9404 219.94 40.7695 235.321 40.7695 235.321L43.227 252.563L40.5196 256.702C40.5196 256.702 32.3974 245.519 30.9812 236.456C30.8645 235.704 30.8312 234.937 30.8479 234.16C29.8649 233.267 28.9735 232.099 28.8319 230.889C28.7069 230.13 28.9569 229.312 29.8399 229.37L29.8482 229.378Z" fill="#FFF3DB"/>
<path d="M45.068 219.122C46.7758 222.81 39.1867 234.244 39.1867 234.244L41.6525 252.588C41.6525 252.588 33.7635 236.205 33.447 234.177C33.1304 232.149 42.9271 214.481 45.0764 219.113L45.068 219.122Z" fill="#FEB8AC"/>
<path d="M66.7442 262.569C66.2944 263.312 65.6529 263.754 64.8532 263.888C62.5789 264.272 60.1714 261.985 57.7139 257.053C57.5973 256.81 57.6889 256.527 57.9305 256.41C58.1638 256.285 58.4553 256.385 58.572 256.627C61.3793 262.244 63.462 263.153 64.6949 262.945C65.2197 262.861 65.6196 262.577 65.9195 262.077C66.7859 260.641 66.5693 257.837 66.0778 256.36C66.0111 256.151 66.0861 255.918 66.2777 255.801C66.461 255.684 66.7025 255.709 66.8692 255.859C67.9771 256.902 68.9518 258.154 69.8598 259.69C70.0098 259.948 70.168 260.216 70.3263 260.491C71.1261 261.885 72.0258 263.47 73.342 264.196C73.8002 264.447 74.2333 264.497 74.6249 264.338C75.0914 264.146 75.4829 263.671 75.6912 263.011C76.1744 261.626 75.6912 260.14 75.2247 258.697L75.1247 258.379C75.0581 258.179 75.133 257.954 75.3163 257.829C75.4913 257.712 75.7245 257.72 75.8911 257.862C76.166 258.096 76.4409 258.329 76.7158 258.571C77.9987 259.681 79.3233 260.833 80.8478 261.376C81.5892 261.618 82.139 261.601 82.4639 261.325C82.9471 260.917 83.097 259.832 82.8804 258.371C82.8388 258.112 83.022 257.862 83.2886 257.82C83.5469 257.77 83.7968 257.962 83.8384 258.229C84.0384 259.523 84.0634 261.242 83.097 262.068C82.4972 262.577 81.6475 262.652 80.5479 262.302C79.0317 261.759 77.7571 260.741 76.5492 259.698C76.8658 260.866 77.0407 262.102 76.6242 263.32C76.3326 264.246 75.7412 264.947 74.9997 265.24C74.7332 265.348 74.4583 265.398 74.175 265.398C73.7585 265.398 73.3253 265.281 72.9005 265.048C71.351 264.18 70.3763 262.477 69.5099 260.975C69.36 260.7 69.2017 260.441 69.0601 260.19C68.5353 259.298 67.9855 258.513 67.4023 257.812C67.6022 259.406 67.5273 261.351 66.7775 262.586L66.7442 262.569Z" fill="#EFDCBD"/>
<path d="M57.3474 274.57C57.4057 274.311 57.6556 274.153 57.9222 274.203C58.1804 274.261 58.3471 274.52 58.2887 274.779C58.0138 276.039 58.0722 277.391 58.472 278.91C59.2801 281.814 60.1465 282.457 60.7213 282.482C61.8792 282.482 62.2457 280.095 62.329 279.352C62.4873 278.259 62.3624 277.241 61.9542 276.331C61.8542 276.139 61.7792 275.989 61.7292 275.88C61.6293 275.647 61.7293 275.371 61.9542 275.254C62.1874 275.138 62.4623 275.229 62.5873 275.455C62.6789 275.622 62.7622 275.78 62.8372 275.955C63.3537 276.907 64.3367 278.234 65.1531 278.492C65.3697 278.559 65.5446 278.543 65.7112 278.442C65.9112 278.326 66.0111 278.167 66.0445 277.942C66.1944 276.79 64.495 274.537 63.5953 273.635C63.4037 273.443 63.4037 273.143 63.5953 272.951C63.7869 272.759 64.0868 272.759 64.2784 272.951C64.3117 272.984 67.2607 276.039 67.0025 278.059C66.9358 278.584 66.6609 279.002 66.2111 279.269C65.8112 279.511 65.3447 279.561 64.8699 279.41C64.3284 279.235 63.8119 278.826 63.3537 278.334C63.3537 278.709 63.337 279.085 63.2787 279.477C62.9788 282.039 62.0708 283.45 60.6963 283.45C58.6969 283.366 57.8222 280.212 57.539 279.168C57.1058 277.491 57.0392 275.989 57.3474 274.578V274.57Z" fill="#EFDCBD"/>
<path d="M38.6953 317.016C38.9368 317.116 39.0535 317.4 38.9535 317.65C38.5036 318.727 38.7536 320.913 39.495 322.507C39.9365 323.442 40.4863 324.06 41.0361 324.227C41.7192 324.41 42.3107 324.243 42.8522 323.734C44.0601 322.574 44.6182 319.895 44.2934 318.368C44.235 318.109 44.4017 317.859 44.6516 317.801C44.9098 317.734 45.1681 317.901 45.2264 318.151C45.8845 320.805 47.0424 323.25 47.6506 323.275C47.7838 323.275 48.1087 323 48.4669 321.973C49.5499 318.71 49.5499 313.978 48.4669 310.707C48.392 310.49 48.4836 310.248 48.6835 310.139C48.8835 310.022 49.1334 310.064 49.2833 310.239C50.5496 311.692 53.0487 313.845 54.3899 312.751C54.8065 312.418 55.0147 311.984 55.0231 311.416C55.0731 309.522 52.9154 306.768 51.7992 305.774C51.5992 305.599 51.5826 305.29 51.7575 305.098C51.9324 304.898 52.2407 304.881 52.4406 305.057C53.5736 306.067 56.0477 309.079 55.9811 311.441C55.9561 312.292 55.6229 312.993 54.9897 313.494C53.3903 314.804 51.2327 313.402 49.8332 312.159C50.4996 315.414 50.3413 319.328 49.3666 322.274C49.2 322.758 48.6919 324.235 47.6422 324.235C47.6256 324.235 47.6089 324.235 47.5922 324.235C46.5759 324.193 45.7179 322.616 45.1264 321.08C44.8682 322.341 44.335 323.617 43.4936 324.427C42.9188 324.978 42.2607 325.253 41.536 325.253C41.2777 325.253 41.0195 325.22 40.7529 325.153C39.9115 324.894 39.1701 324.118 38.6036 322.916C37.7289 321.047 37.4873 318.618 38.0371 317.283C38.1371 317.033 38.4287 316.924 38.6703 317.024L38.6953 317.016Z" fill="#EFDCBD"/>
<path d="M31.2977 289.951C31.4977 289.776 31.7976 289.784 31.9808 289.985C32.1558 290.176 32.1474 290.485 31.9475 290.66C30.2897 292.171 29.3234 294.808 30.5563 296.594C31.0395 297.195 31.6476 297.496 32.2557 297.446C32.9138 297.387 33.522 296.928 33.9302 296.177C34.0385 295.985 34.2551 295.893 34.4716 295.935C34.6882 295.993 34.8382 296.185 34.8382 296.402C34.8382 298.756 35.2797 300.867 35.8045 301.093C36.0878 301.193 36.246 301.134 36.3377 301.076C37.0208 300.659 37.2707 298.797 37.379 298.005L37.4123 297.788C37.4456 297.521 37.6789 297.337 37.9538 297.379C38.2121 297.412 38.3953 297.663 38.362 297.921L38.3287 298.138C38.1787 299.231 37.9038 301.259 36.8292 301.91C36.6542 302.019 36.4043 302.119 36.0794 302.119C35.8962 302.119 35.6796 302.086 35.4463 302.002C34.3633 301.535 34.0218 299.315 33.9135 297.729C33.4553 298.13 32.9138 298.364 32.339 298.414C31.3894 298.489 30.498 298.063 29.7816 297.17C28.1738 294.842 29.365 291.712 31.2977 289.951Z" fill="#EFDCBD"/>
<path d="M42.3191 275.955C42.0108 276.122 41.6859 276.206 41.361 276.206C41.0362 276.206 40.7029 276.122 40.378 275.955C39.8782 275.705 39.52 275.254 39.3367 274.628C38.8952 273.176 39.4617 270.965 40.0198 269.988C40.1531 269.755 40.4447 269.671 40.6779 269.805C40.9112 269.938 40.9945 270.23 40.8529 270.464C40.453 271.173 39.8865 273.135 40.2614 274.353C40.3697 274.72 40.553 274.962 40.8196 275.096C41.2028 275.279 41.536 275.288 41.8692 275.104C42.9355 274.52 43.6936 272.242 43.8102 271.132C43.8352 270.873 44.0601 270.689 44.3434 270.706C44.6099 270.731 44.7932 270.973 44.7682 271.24C44.6433 272.367 43.8519 275.113 42.3274 275.947L42.3191 275.955Z" fill="#EFDCBD"/>
<path d="M40.828 268.152C40.828 268.152 40.7697 268.152 40.7447 268.152C40.0449 268.152 39.4284 267.768 39.0452 267.067C38.0872 265.148 40.703 261.242 41.861 260.082C42.0526 259.898 42.3525 259.898 42.5441 260.082C42.7273 260.274 42.7273 260.574 42.5441 260.766C41.3028 262.01 39.2952 265.415 39.8949 266.617C40.1115 267.009 40.4198 267.209 40.7863 267.184C41.3445 267.159 41.9443 266.683 42.2442 266.016C42.3525 265.774 42.6357 265.665 42.8773 265.774C43.1189 265.882 43.2272 266.166 43.1189 266.408C42.6773 267.41 41.7527 268.111 40.828 268.152Z" fill="#EFDCBD"/>
<path d="M53.4569 333.757C53.6735 333.916 53.7151 334.216 53.5652 334.433C52.3822 336.061 50.2413 342.02 52.3323 343.555C52.6238 343.755 52.8987 343.781 53.2153 343.647C53.8984 343.338 54.5648 342.287 54.8314 341.394C54.8814 341.168 54.923 340.976 54.9564 340.818C55.0064 340.567 55.2396 340.384 55.4979 340.426C55.7561 340.467 55.931 340.701 55.906 340.96C55.8894 341.143 55.8394 341.36 55.7811 341.586C55.7311 341.819 55.6645 342.07 55.6061 342.353C55.148 344.281 54.19 348.304 55.2146 349.022C55.7311 349.355 56.0727 349.239 56.2809 349.122C57.8804 348.237 58.8051 343.163 58.8051 341.719C58.8051 341.452 59.0217 341.235 59.2882 341.235C59.5548 341.235 59.7714 341.452 59.7714 341.719C59.7714 342.837 58.9467 348.755 56.7474 349.965C56.5142 350.09 56.2143 350.198 55.8561 350.198C55.4979 350.198 55.1146 350.098 54.6815 349.823C53.5152 349.005 53.6818 346.793 54.2233 344.156C54.04 344.315 53.8401 344.448 53.6235 344.54C52.9987 344.824 52.3656 344.765 51.7908 344.356C49.0167 342.32 51.4909 335.71 52.8071 333.883C52.9654 333.666 53.2653 333.616 53.4819 333.774L53.4569 333.757Z" fill="#FFF3DB"/>
<path d="M20.993 324.335L21.0846 324.152C21.2012 323.91 21.4928 323.818 21.7344 323.935C21.9676 324.051 22.0676 324.344 21.951 324.577L21.8593 324.761C20.743 326.989 18.4272 331.638 19.835 333.899C20.0433 334.208 20.3515 334.559 20.6431 334.517C21.2012 334.433 22.0009 333.115 22.5008 331.454C22.5758 331.195 22.8507 331.053 23.1006 331.129C23.3588 331.204 23.5004 331.471 23.4255 331.729C23.1839 332.547 22.2675 335.251 20.793 335.468C20.7264 335.477 20.6514 335.485 20.5848 335.485C20.0266 335.485 19.5018 335.134 19.027 334.417C17.3275 331.688 19.8017 326.714 21.0013 324.327L20.993 324.335Z" fill="#EFDCBD"/>
<path d="M26.1248 331.93C26.383 331.996 26.5413 332.255 26.4747 332.514C25.45 336.62 25.3417 339.866 26.2247 340.409C26.6579 340.676 27.5743 340.259 28.7489 339.257C28.9488 339.09 29.2571 339.107 29.432 339.316C29.6069 339.516 29.5819 339.825 29.3737 339.992C28.2241 340.968 27.2911 341.452 26.533 341.452C26.2331 341.452 25.9665 341.377 25.7166 341.227C23.8339 340.058 24.9668 334.575 25.5416 332.272C25.6083 332.013 25.8665 331.855 26.1248 331.921V331.93Z" fill="#EFDCBD"/>
<path d="M79.773 281.222C80.8976 285.828 87.4788 288.182 94.4681 286.471C101.457 284.76 106.214 279.628 105.089 275.021C103.965 270.414 97.3837 268.06 90.3944 269.771C83.4051 271.482 78.6484 276.615 79.773 281.222Z" fill="#593A42"/>
<path d="M98.3835 270.748C100.624 271.299 102.674 273.11 103.157 275.413C103.424 276.682 101.441 276.924 101.174 275.672C100.883 274.311 99.4082 273.051 98.092 272.734C96.8507 272.434 97.1173 270.447 98.3752 270.748H98.3835Z" fill="#936170"/>
<path d="M103.39 277.207C103.657 277.908 103.632 278.643 103.298 279.319C102.732 280.47 100.891 279.678 101.466 278.518C101.574 278.301 101.624 278.184 101.541 277.958C101.083 276.748 102.94 275.997 103.39 277.207Z" fill="#936170"/>
<path d="M79.6064 267.668C79.6064 269.246 80.4645 270.514 81.5225 270.514C82.5804 270.514 83.4385 269.237 83.4385 267.668C83.4385 266.099 82.5804 264.814 81.5225 264.814C80.4645 264.814 79.6064 266.091 79.6064 267.668Z" fill="#593A42"/>
<path d="M67.3438 267.668C67.3438 269.246 68.2018 270.514 69.2598 270.514C70.3177 270.514 71.1758 269.237 71.1758 267.668C71.1758 266.099 70.3177 264.814 69.2598 264.814C68.2018 264.814 67.3438 266.091 67.3438 267.668Z" fill="#593A42"/>
<ellipse cx="132.5" cy="260" rx="6.5" ry="9" fill="#E0EC89"/>
</g>
<defs>
<clipPath id="clip0_1502_3">
<rect width="267" height="164" fill="white" transform="translate(177 79)"/>
</clipPath>
<clipPath id="clip1_1502_3">
<rect width="164.146" height="267.712" fill="white" transform="matrix(0.0633151 0.997994 -0.999718 0.0237619 608.607 57.7909)"/>
</clipPath>
<clipPath id="clip2_1502_3">
<rect width="239.526" height="203.078" fill="white" transform="matrix(-0.921956 0.387296 -0.746311 -0.665598 432.132 264.233)"/>
</clipPath>
<clipPath id="clip3_1502_3">
<rect width="268" height="164" fill="white" transform="translate(10)"/>
</clipPath>
<clipPath id="clip4_1502_3">
<rect y="52" width="592" height="305" rx="30" fill="white"/>
</clipPath>
</defs>
</svg>
