<svg width="304" height="37" viewBox="0 0 304 37" fill="none" xmlns="http://www.w3.org/2000/svg">
<path d="M111.064 14.7341C109.276 13.7636 107.244 13.2787 104.971 13.2787C102.725 13.2787 100.708 13.7643 98.92 14.7341C97.1317 15.7046 95.7174 17.0498 94.6777 18.7682C93.638 20.4873 93.1182 22.4694 93.1182 24.7159C93.1182 26.8789 93.638 28.8199 94.6777 30.5383C95.7174 32.2574 97.1317 33.6231 98.92 34.6347C100.708 35.647 102.725 36.1524 104.971 36.1524C107.244 36.1524 109.276 35.647 111.064 34.6347C112.852 33.6231 114.267 32.2574 115.306 30.5383C116.346 28.8192 116.866 26.8781 116.866 24.7159C116.866 22.4701 116.346 20.488 115.306 18.7682C114.267 17.049 112.853 15.7046 111.064 14.7341ZM109.96 27.6351C109.441 28.5053 108.747 29.1771 107.877 29.6498C107.006 30.1233 106.037 30.3597 104.969 30.3597C103.931 30.3597 102.977 30.1157 102.107 29.627C101.237 29.1391 100.543 28.4673 100.024 27.6123C99.5052 26.758 99.246 25.7662 99.246 24.6361C99.246 23.446 99.5052 22.423 100.024 21.5688C100.543 20.7145 101.237 20.0579 102.107 19.5996C102.978 19.1421 103.931 18.9126 104.969 18.9126C106.037 18.9126 107.006 19.1413 107.877 19.5996C108.747 20.0571 109.441 20.7145 109.96 21.5688C110.478 22.4238 110.738 23.446 110.738 24.6361C110.738 25.7662 110.479 26.7649 109.96 27.6351Z" fill="white"/>
<path d="M77.7548 28.5319V6.69636C77.7548 6.0952 77.2677 5.60803 76.6665 5.60803H70.113V33.969C70.113 35.1751 71.0904 36.1524 72.2965 36.1524H91.9448V29.6195C91.9448 29.0191 91.4576 28.5319 90.8572 28.5319H77.7548Z" fill="white"/>
<path d="M162.467 36.1524H167.887V6.73355C167.887 6.12175 167.391 5.62622 166.78 5.62622H161.36V35.0451C161.36 35.6569 161.856 36.1524 162.467 36.1524Z" fill="white"/>
<path d="M235.01 29.7099C234.262 28.9628 233.369 28.5889 232.33 28.5889C231.29 28.5889 230.404 28.9628 229.669 29.7099C228.934 30.4577 228.567 31.3507 228.567 32.3889C228.567 33.3867 228.967 34.3497 229.673 35.0542C230.407 35.7861 231.293 36.1531 232.33 36.1531C233.369 36.1531 234.262 35.7853 235.01 35.0511C235.757 34.3162 236.131 33.4293 236.131 32.3904C236.132 31.3507 235.757 30.4577 235.01 29.7099Z" fill="white"/>
<path d="M131.149 19.0798L135.775 19.0676C136.375 19.0661 136.86 18.5797 136.86 17.9801V14.4331C136.86 13.8327 136.373 13.3456 135.772 13.3456L129.961 13.3471C123.663 13.3471 118.558 18.4528 118.558 24.7501C118.558 31.0483 123.663 36.1532 129.961 36.1532L135.787 36.1501C136.387 36.1501 136.874 35.663 136.874 35.0626V31.5476C136.874 30.9479 136.389 30.4615 135.789 30.46L131.149 30.4471C128.01 30.4471 125.464 27.9026 125.464 24.7631C125.464 21.6235 128.009 19.0798 131.149 19.0798Z" fill="white"/>
<path d="M146.584 13.4223L141.941 13.4208C141.339 13.4208 140.851 13.9102 140.853 14.5137L140.869 18.0446C140.872 18.642 141.356 19.1253 141.953 19.1269L146.437 19.139C149.053 19.139 150.811 20.5291 151.725 22.5195H145.787C145.772 22.5187 145.758 22.518 145.744 22.5172C142.178 22.328 139.041 24.9363 138.613 28.4809C138.112 32.6282 141.337 36.1531 145.385 36.1531C149.762 36.1531 152.207 32.8479 152.207 30.4843H152.226V34.5062C152.226 35.1066 152.713 35.5938 153.313 35.5938H156.867C157.467 35.5938 157.954 35.1066 157.954 34.5062V24.7934C157.954 16.0139 152.864 13.4223 146.584 13.4223ZM151.094 28.2073H151.082V28.2119C151.082 29.8809 149.637 31.2124 147.929 31.0239C146.627 30.8795 145.584 29.836 145.44 28.5341C145.252 26.8272 146.583 25.3824 148.252 25.3824H148.264V25.3779H151.094V28.2073Z" fill="white"/>
<path d="M201.872 30.4243V36.1524H182.374C181.774 36.1524 181.286 35.6652 181.286 35.0648C181.286 33.2788 181.95 31.5559 183.148 30.2305L193.275 19.0243H182.434V13.2961H200.784C201.385 13.2961 201.872 13.7833 201.872 14.3837C201.872 16.0587 201.255 17.676 200.14 18.9262L189.888 30.4243H201.872Z" fill="white"/>
<path d="M223.808 29.6452C223.805 28.9529 223.165 28.4368 222.49 28.5873C221.191 28.8761 218.858 30.447 215.189 30.447C208.951 30.447 208.951 25.8878 208.951 25.8878H222.703C223.321 25.8878 223.818 25.3725 223.789 24.7554C223.482 18.4071 220.529 13.3098 213.52 13.3098C204.502 13.3098 203.231 21.6538 203.231 24.741C203.231 31.0125 206.886 36.1531 214.491 36.1531C221.535 36.1531 223.829 33.9377 223.829 33.9377L223.808 29.6452ZM213.356 18.341C215.827 18.341 217.83 20.2129 217.83 22.48H208.883C208.883 20.2129 210.885 18.341 213.356 18.341Z" fill="white"/>
<path d="M286.39 29.6452C286.387 28.9529 285.747 28.4368 285.071 28.5873C283.773 28.8761 281.439 30.447 277.77 30.447C271.533 30.447 271.533 25.8878 271.533 25.8878H285.284C285.902 25.8878 286.4 25.3725 286.37 24.7554C286.064 18.4071 283.111 13.3098 276.102 13.3098C267.084 13.3098 265.813 21.6538 265.813 24.741C265.813 31.0125 269.467 36.1531 277.072 36.1531C284.117 36.1531 286.41 33.9377 286.41 33.9377L286.39 29.6452ZM275.938 18.341C278.408 18.341 280.411 20.2129 280.411 22.48H271.464C271.464 20.2129 273.467 18.341 275.938 18.341Z" fill="white"/>
<path d="M254.443 5.68856L248.106 5.68628H241.571C240.97 5.68628 240.483 6.17344 240.483 6.7746V36.1524H248.106V25.9342L254.443 25.9372C260.246 25.9372 264.951 21.4046 264.951 15.8125C264.95 10.222 260.246 5.68856 254.443 5.68856ZM252.463 18.9718L248.106 18.9711V17.4306V17.2314V13.5447H248.112V11.9943L252.463 11.995C255.458 11.995 256.819 13.5568 256.819 15.4834C256.819 17.41 255.458 18.9718 252.463 18.9718Z" fill="white"/>
<path d="M295.928 18.8982H301.845C303.035 18.8982 304 17.9337 304 16.7436V13.2628H297.228V9.89749C297.228 9.31229 296.753 8.83728 296.168 8.83728H295.334C295.027 8.83728 294.735 8.97028 294.533 9.20284L289.166 15.3908C288.999 15.5838 288.907 15.83 288.907 16.0854V17.8387C288.907 18.4239 289.382 18.8989 289.967 18.8989H290.098V28.4286C290.098 30.4205 290.203 36.154 296.738 36.154C301.765 36.154 303.999 34.2091 303.999 34.2091V29.8437C303.999 29.1468 303.353 28.6307 302.673 28.782C301.642 29.01 300.261 30.3772 298.016 30.3772C296.122 30.3772 295.927 28.8192 295.927 27.4474V18.8982H295.928Z" fill="white"/>
<path d="M171.861 36.1525H177.28C177.891 36.1525 178.388 35.6562 178.388 35.0444V13.3274H172.969C172.357 13.3274 171.861 13.8237 171.861 14.4355V36.1525Z" fill="white"/>
<path d="M175.124 12.1273C173.325 12.1273 171.867 10.6688 171.867 8.86991C171.867 7.07099 173.325 5.61255 175.124 5.61255C176.923 5.61255 178.382 7.07099 178.382 8.86991C178.382 10.6688 176.923 12.1273 175.124 12.1273Z" fill="white"/>
<path d="M20.1422 19.9735L11.1453 4.38968C10.994 4.12824 10.6163 4.12824 10.4651 4.38968L1.46136 19.9735C1.10492 20.5906 0.81764 21.2214 0.59496 21.8583C-1.6478 28.2711 2.68952 35.3361 9.58576 36.0862C9.98248 36.1295 10.3883 36.1523 10.8018 36.1523H10.8048C12.09 36.1523 13.3022 35.935 14.4156 35.5443C15.7205 35.0853 16.8901 34.3853 17.888 33.5091C18.1221 33.3031 18.3478 33.088 18.5621 32.8631C19.747 31.6273 20.6308 30.1202 21.1309 28.4839C21.9555 25.7935 21.745 22.7497 20.1422 19.9735ZM11.561 29.7911C8.49212 30.2943 5.87696 27.6791 6.38084 24.6102C6.6856 22.752 8.18432 21.2533 10.0425 20.9486C13.1114 20.4454 15.7266 23.0606 15.2234 26.1287C14.9179 27.9877 13.4192 29.4864 11.561 29.7911Z" fill="#DADADA"/>
<path d="M10.8019 27.3577C11.8995 27.3577 12.7893 26.4679 12.7893 25.3703C12.7893 24.2727 11.8995 23.3829 10.8019 23.3829C9.70424 23.3829 8.81445 24.2727 8.81445 25.3703C8.81445 26.4679 9.70424 27.3577 10.8019 27.3577Z" fill="#DADADA"/>
<path d="M41.2724 11.9495C41.2253 11.9495 41.1797 11.9518 41.1326 11.9525C40.8605 11.9556 40.5907 11.9662 40.324 11.9882C37.8942 4.90352 31.4312 0 23.6298 0C23.3228 0 22.9861 0.00683295 22.6289 0.0212729C19.8739 0.132993 15.8938 0.731877 14.5714 2.69496C14.4999 2.80136 14.5007 2.94271 14.5638 3.0552L17.1546 7.68891L21.2449 15.0145L22.7018 17.6168L24.4088 20.672C25.358 22.3417 25.7874 24.1839 25.7874 25.8392C25.7874 30.2047 22.7505 34.1514 21.5079 35.5832C21.3164 35.8036 21.4699 36.1539 21.7572 36.1539H34.2592H41.7292C42.6237 36.1198 43.4909 35.9822 44.3246 35.758C46.0148 35.3043 47.5561 34.4812 48.8641 33.3815C44.5161 33.1345 40.2791 31.638 36.6805 29.0016C36.0748 28.5577 35.9433 27.7065 36.3872 27.1001C36.831 26.4943 37.6822 26.3629 38.2887 26.8067C42.0727 29.5799 46.6601 30.9206 51.255 30.6652C52.4771 28.7652 53.1885 26.4951 53.1885 24.0555C53.1877 17.3698 47.8525 11.9495 41.2724 11.9495ZM32.9482 17.9755C32.8418 15.501 31.6622 13.5508 30.222 13.5508C28.7818 13.5508 27.6023 15.501 27.4959 17.9755C26.9472 16.8522 26.6143 15.3877 26.6143 13.7849C26.6143 10.2494 28.2293 7.3834 30.222 7.3834C32.2148 7.3834 33.8298 10.2494 33.8298 13.7849C33.8298 15.3877 33.4969 16.8522 32.9482 17.9755ZM47.5759 22.841C44.7897 22.841 42.531 20.5071 42.531 17.629C42.531 16.1333 43.1413 14.7865 44.1179 13.8358C47.4535 15.0571 50.1044 17.7353 51.3257 21.1143C50.4023 22.1745 49.0647 22.841 47.5759 22.841Z" fill="white"/>
</svg>
